<?xml version="1.0" encoding="utf-8"?>

<svg version="1.1" id="Layer_1" xmlns="http://www.w3.org/2000/svg" xmlns:xlink="http://www.w3.org/1999/xlink" x="0px" y="0px"
	 viewBox="0 0 4727.181 5000" enable-background="new 0 0 4727.181 5000" xml:space="preserve">
<g>
	<path d="M4478.686,3566.098l-19.391,12.679c74.639,135.083,124.168,344.53,22.126,468.187
		c-43.29,48.095-135.812,65.821-221.064,14.788c-2.494-6.59-4.925-13.206-7.647-19.647c-1.887-82.004-11.576-169.446-29.242-261.832
		c32.341-278.657-147.705-655.415-484.918-823.932c272.465-130.266,574.59-421.773,753.469-770.205
		c704.168-1162.46-318.665-2148.129-1154.368-1475.412c-215.963-208.261-496.149-334.264-814.707-365.822
		c-14.944-100.23-56.017-143.465-122.094-186.823c-20.307,70.045-60.128,142.934-128.717,162.379
		c41.854-140.205-5.728-246.936-138.647-309.698L2110.719,0c1.206,140.164-20.246,272.654-135.098,366.934
		c-33.305,27.349-73.656,48.559-119.944,63.065c-176.547,55.329-324.756,161.463-443.69,299.287
		C571.01,18.812-474.53,1017.114,234.799,2185.146c321.981,627.075,1077.127,1118.153,1347.207,680.049
		c27.342,18.447,55.56,35.643,84.652,51.516c-1.206,12.067-2.729,28.872-4.211,49.799
		c-37.542,47.082-90.232,113.448-143.844,181.898c-58.08,74.147-105.431,235.576-160.107,444.039
		c-34.713-29.774-61.886-46.637-96.423-65.512l-0.364,0.648c-28.966-14.959-59.183-26.674-90.258-34.84l0.054-0.431
		c-136.547-30.744-262.696-5.182-385.504,82.28l0.141,0.27c-37.791,28.184-71.858,61.81-101.24,99.865l-0.257-0.257
		c-97.548,133.494-135.272,276.419-107.648,450.918l0.242-0.075c43.188,234.911,228.698,436.078,477.843,467.723
		c-0.324,2.438-0.592,4.899-0.646,7.406l-0.283,0.174c0.27,2.931,0.836,8.758,0.762,7.984
		c7.721,80.017,131.163,147.321,205.654,178.111c49.832,20.549,89.146,31.369,136.553,43.578l-0.122-0.444
		c10.315,2.461,20.772,4.836,31.506,7.053l-0.128,0.23c113.49,21.615,222.916,33.211,422.777,22.759l-0.074-0.122
		c2.244-0.142,4.44-0.296,6.644-0.451l-0.054,0.161c70.489-5.793,173.354-16.252,236.702-51.118
		c71.756,95.42,254.859,150.594,371.671,175.746l-0.013-0.046c56.833,11.064,126.001,19.035,184.477,14.775
		c56.206-4.103,129.909-2.58,199.125-8.436l0,0c4.622-0.444,9.641-0.849,13.556-1.178l-0.048-0.128
		c198.379-19.864,248.419-103.605,242.524-229.453l-0.242-0.076c-2.54-35.129-24.33-166.225-23.286-352.508
		c23.817,69.864,54.393,130.954,91.45,183.063c57.795,247.952,218.12,408.762,478.215,408.762
		c269.521,0,574.449-181.858,635.761-529.448c9.17-51.98,15.355-117.715,14.735-173.032
		c145.311,32.429,263.638-45.943,329.392-185.191C4707.821,3950.038,4585.148,3706.718,4478.686,3566.098z M4552.08,2008.222
		c-4.514,12.242-46.692,94.798-87.645,162.527c-310.56,604.842-1015.04,1064.884-1276.676,701.292
		c425.066-233.332,585.256-649.568,585.943-1130.604c-12.614-220.315-60.006-423.288-139.565-602.753
		C4226.919,681.949,4893.397,1275.303,4552.08,2008.222z M4676.713,1627.584c8.152-546.823-538.954-904.852-1055.882-518.034
		c-65.531-139.565-151.827-266.334-260.6-376.468C4041.728,187.525,4827.375,777.214,4676.713,1627.584z M1391.7,753.476
		c-95.755,117.209-171.326,255.44-226.11,403.958C640.218,698.308,42.087,1053.742,50.611,1627.549
		C-102.267,764.52,707.104,174.877,1391.7,753.476z M262.356,2169.778c-43.525-71.871-82.382-149.752-87.105-161.563
		c-350.643-752.978,365.957-1368.734,978.871-818.764c-199.637,577.724-95.218,1300.117,401.93,1657.701
		C1304.051,3261.747,574.784,2778.118,262.356,2169.778z M1865.111,460.171c183.898-57.614,272.115-212.278,277.209-409.347
		c107.648,60.295,138.499,155.829,91.66,284.323l-8.389,23.003l24.411-1.832c101.092-7.6,150.634-104.454,167.924-148.088
		c54.232,43.425,68.994,99.429,76.815,165.794c1278.219,116.312,1561.809,1676.23,904.932,2304.95
		c-115.996,111.024-259.583,195.906-429.75,254.394c51.475-180.881,56.476-397.273,13.508-646.305
		c-3.53-20.549-34.787-15.235-31.135,5.376c103.518,600.187-77.085,1005.047-522.312,1170.795
		c-198.681,74.019-387.572,71.664-592.257,21.756l9.932,27.658c0.222,0.612,21.682,61.804-4.379,114.096
		c-49.253,98.868-260.217,111.113-344.175-43.673c-101.799-187.839,75.564-437.93,384.176-356.976
		c86.229,22.509,179.998,8.86,235.569-61.36c123.394-155.931,35.865-563.097-6.563-759.487
		c-4.333-20.443-35.279-13.873-30.912,6.577c47.211,221.528,87.416,456.518,60.524,612.044
		C718.512,2885.71,854.202,777.025,1865.111,460.171z M2248.87,3542.029c-39.752,57.297-56.792,106.382-68.865,165.544
		c-10.518-59.425-28.372-126.23-38.405-155.674C2177.652,3550.573,2213.449,3547.27,2248.87,3542.029z M1691.662,2929.959
		c-0.72,0.918-1.375,1.724-2.129,2.668c0.115-1.227,0.222-2.405,0.331-3.57C1690.456,2929.357,1691.07,2929.646,1691.662,2929.959z
		 M1271.629,3560.054c28.191,16.42,54.979,36.106,80.023,58.626c-13.434,51.543-27.874,107.843-43.808,169.041
		C1243.203,3745.002,1216.218,3667.147,1271.629,3560.054z M1144.186,3511.206c-7.93,37.745-35.973,90.952-120.786,142.712
		c-85.777,52.352-154.987,14.883-205.593-71.96C919.309,3513.144,1039.09,3490.184,1144.186,3511.206z M687.753,3711.745
		c45.271,47.068,107.433,134.652,70.173,234.026c-36.949,91.498-113.381,131.5-161.152,148.114
		C579.574,3963.855,609.314,3825.249,687.753,3711.745z M1062.369,4569.642c-247.974-29.283-421.543-234.72-461.438-451.527
		c53.464-17.814,138.338-61.3,179.626-163.537c42.561-113.491-27.207-210.668-78.245-262.694
		c27.76-36.389,60.026-68.548,95.79-95.581c57.897,97.897,141.357,137.287,237.954,78.345
		c91.074-55.566,122.423-114.36,131.694-157.776c28.333,7.606,55.91,18.285,82.395,31.876
		c-62.115,120.597-29.645,215.06,51.288,263.51c-13.327,50.964-27.349,103.707-42.219,157.776
		c-158.188,39.65-278.819,149.831-320.821,256.799l14.446,6.353c1.186-2.418,89.294-175.539,298.682-235.375
		C1200.505,4181.248,1139.509,4378.298,1062.369,4569.642z M1080.191,4613.262c47.09-27.846,112.243-54.109,162.358-31.991
		c58.563,25.75,101.361,149.934,120.147,214.899C1191.645,4748.177,1092.783,4669.697,1080.191,4613.262z M1466.522,4819.597
		c113.618-187.665,218.503-165.85,341.539,18.13C1655.508,4843.824,1548.662,4834.013,1466.522,4819.597z M1865.616,4834.586
		c-9.393,0.701-19.229,1.306-29.349,1.872c-137.165-212.855-268.807-237.49-395.206-21.532
		c-17.571-3.484-34.624-7.264-51.057-11.353c-22.174-81.162-68.165-213.961-137.678-244.551
		c-53.531-23.536-117.735-3.04-169.493,24.855c243.971-602.141,324.958-1254.611,454.888-1420.445
		c72.43-92.475,143.297-181.299,176.19-222.39c132.78,64.169,275.248,99.716,421.456,114.096
		c-24.115,95.144-77.342,146.995-172.216,149.071c-23.771,0.54-49.582-2.875-71.877-8.705
		c-330.928-86.787-536.98,186.688-419.954,402.616c113.261,208.822,450.065,162.997,413.654-64.357
		c37.084,6.017,150.945,19.447,229.553,18.703c112.897,301.706,57.904,803.785,18.596,1059.636
		C1997.149,4583.817,1909.418,4702.21,1865.616,4834.586z M2105.794,4769.67c-5.558,7.034-43.721,46.219-213.713,62.561
		c40.735-115.511,117.883-221.785,237.349-196.081C2117.666,4709.912,2107.938,4759.024,2105.794,4769.67z M2114.689,4794.91
		c9.338-7.708,12.626-13.456,13.475-15.212l0.122-0.392c0.061-0.128,0.155-0.283,0.202-0.385
		c2.068-6.557,12.263-63.718,13.826-72.578c33.081-16.851,69.296-24.901,103.511-11.265
		c100.782,40.311,162.453,192.629,184.29,256.262C2306.321,4921.751,2167.215,4863.78,2114.689,4794.91z M2734.151,4971.287
		c-105.466,2.938-133.953,10.524-233.623-5.8c27.086-74.622,76.917-161.28,155.842-161.948c94.051,0,141.868,85.59,172.707,164.07
		C2797.162,4969.751,2765.178,4970.541,2734.151,4971.287z M2867.753,4964.233c-26.91-124.134,112.647-211.201,214.353-186.083
		C3084.376,4920.324,2970.53,4952.996,2867.753,4964.233z M3161.193,4525.126c-56.685-99.729-93.331-227.282-108.706-381.064
		c-32.361-237.599,6.3-424.448,114.891-555.359c143.6-173.173,364.272-186.889,366.49-187.01c-0.013-7.768-0.007-4.185-0.026-15.772
		c-135.502-6.178-325.417,82.76-425.586,243.488c-16.32-48.766-38.108-86.123-39.368-88.238l-13.967,7.31
		c16.831,36.491,29.181,73.414,37.307,108.362c-69.318,127.815-90.811,292.165-63.84,490.071
		c6.563,65.653,17.033,126.568,31.135,182.862c-8.146,211.165,14.418,357.689,20.934,423.181
		c-102.036-20.637-239.162,55.787-240.078,178.69c-35.164-79.201-89.544-154.792-188.17-152.375
		c-99.731,2.276-154.508,121.278-176.055,182.233c-6.085-1.138-12.174-2.339-18.287-3.606
		c-37.031-115.82-126.358-294.066-248.539-294.066c-21.453,0-42.406,5.31-62.034,13.469c3.982-23.677,6.69-40.785,9.527-59.185
		l-0.431-0.122c29.969-197.508,69.52-543.716,35.077-832.15c14.365-103.25,29.053-167.356,91.605-249.538
		c304.402-56.369,570.055-245.972,675.392-565.857c71.547-23.358,138.614-51.233,201.227-83.514
		c128.475,181.569,344.066,173.045,549.35,82.895c346.371,163.659,520.001,537.317,490.626,804.535l-1.974,0.385
		c13.967,72.93,23.615,138.945,28.359,212.898c-17.497-31.412-35.373-56.968-54.628-80.178l0.074-0.039
		c-141.249-161.01-332.908-214.405-544.324-171.999l0.013,0.141c-64.15,14.074-124.479,38.182-179.067,71.259l-0.074-0.128
		c-139.733,87.166-230.531,210.217-273.867,376.12l0.161,0.115C3150.817,4277.092,3143.755,4407.526,3161.193,4525.126z
		 M4133.178,3900.926c-88.708,46.753-194.22,72.924-298.924,65.584c-130.327-9.057-168.812-133.165-180.105-211.612
		C3825.117,3723.868,4009.232,3768.518,4133.178,3900.926z M3426.031,4136.65c-83.756,74.585-162.061,75.045-223.974,35.804
		c37.893-137.968,122.073-255.338,237.928-331.838C3475.162,3902.637,3533.618,4040.822,3426.031,4136.65z M3577.204,4970.04
		c-318.686-39.765-433.78-382.452-393.495-705.542c2.871-23.003,7.062-45.46,12.242-67.43
		c84.363,48.99,171.939,23.898,246.235-42.278c120.571-107.405,58.093-257.493,18.394-327.028
		c51.806-31.418,108.902-54.628,169.709-68.239c12.742,87.544,56.213,221.071,202.292,231.223
		c111.899,7.646,223.308-20.401,317.204-71.17c27.327,32.32,51.227,68.597,72.478,114.34
		c-169.5,112.405-163.854,319.698,48.181,386.427C4220.895,4800.239,3892.03,5009.134,3577.204,4970.04z M4273.221,4395.722
		c-186.91-61.84-187.874-238.958-41.101-339.135C4272.472,4155.402,4286.298,4269.396,4273.221,4395.722z M4609.735,4100.872
		c-62.526,132.458-173.091,203.519-307.986,170.403c-2.642-62.389-12.627-121.196-29.713-175.854
		c88.506,40.89,181.817,18.529,227.802-32.609c89.975-109.01,66.831-262.237,34.666-365.937
		C4596.151,3806.444,4668.244,3976.949,4609.735,4100.872z"/>
	<path d="M2559.348,4085.788c-136.836-22.296-238.925,40.11-243.19,42.792l7.943,13.637c2.427-1.306,244.672-128.049,464.159,94.173
		l12.215-9.899C2797.58,4222.118,2727.885,4119.125,2559.348,4085.788z"/>
	<path d="M2289.693,4333.256l-14.52,6.211c2.022,5.053,51.975,123.818,263.679,123.818c105.405,0,196.572-35.307,200.398-36.807
		l-4.844-14.999C2375.369,4503.274,2290.48,4334.921,2289.693,4333.256z"/>
	<path d="M1643.238,3943.402c-123.413-26.592-215.471,35.386-219.319,38.034l8.503,13.307
		c1.967-1.165,198.701-113.744,384.398,77.309l11.891-10.35C1825.763,4057.893,1755.098,3968.425,1643.238,3943.402z"/>
	<path d="M1453.229,4276.842c-71.137-40.453-88.715-105.155-88.863-105.734l-15.484,3.004
		c14.951,105.506,143.829,167.948,248.485,160.803c101.342-5.721,178.603-37.366,181.83-38.715l-5.275-14.87
		C1637.634,4321.877,1529.729,4320.36,1453.229,4276.842z"/>
	<path d="M3816.157,4476.511c-207.676-44.894-392.733,7.883-394.573,8.422l4.124,15.249c1.778-0.458,181.743-43.976,385.321,0.066
		c199.671,43.176,251.188,91.699,253.277,93.749l11.71-10.551C4074.028,4580.939,4024.971,4521.662,3816.157,4476.511z"/>
	<path d="M2725.129,2442.872c-293.507-171.193-457.153,42.199-457.153,42.199
		C2443.804,2386.605,2725.129,2442.872,2725.129,2442.872z"/>
	<path d="M2275.49,2691.627c153.633-86.034,399.443-36.876,399.443-36.876C2418.483,2505.182,2275.49,2691.627,2275.49,2691.627z"/>
	<path d="M2309.636,2883.118c124.081-69.486,322.615-29.78,322.615-29.78C2425.127,2732.53,2309.636,2883.118,2309.636,2883.118z"/>
	<path d="M3071.09,1919.783c138.91,0,251.155-120.092,251.155-268.389c0-220.363-232.833-344.815-397.685-218.934
		c42.441-3.719,78.008,29.04,78.008,70.658c0,38.789-31.937,70.295-71.655,70.295c-38.533,0-70.334-30.287-71.581-68.01
		C2751.453,1683.318,2870.905,1919.783,3071.09,1919.783z M3130.293,1716.939c22.322,0,40.298,17.828,40.298,39.786
		c0,21.978-17.976,39.773-40.298,39.773c-22.315,0-40.237-17.802-40.237-39.773
		C3090.043,1734.767,3107.971,1716.939,3130.293,1716.939z"/>
	<path d="M3022.376,2112.528c217.451,0,394.357-190.124,394.357-423.821c0-233.704-176.906-423.834-394.357-423.834
		c-217.452,0-394.364,190.131-394.364,423.834C2628.013,1922.397,2804.923,2112.528,3022.376,2112.528z M3022.376,1304.983
		c195.325,0,354.207,172.128,354.207,383.717c0,211.569-158.882,383.698-354.207,383.698s-354.207-172.128-354.207-383.698
		C2668.163,1477.124,2827.051,1304.983,3022.376,1304.983z"/>
	<path d="M1683.605,1432.454c42.441-3.719,78.008,29.04,78.008,70.658c0,38.789-31.937,70.295-71.655,70.295
		c-38.533,0-70.334-30.287-71.581-68.01c-107.877,177.922,11.576,414.401,211.758,414.401
		c138.911,0,251.147-120.092,251.147-268.389C2081.296,1431.025,1848.461,1306.58,1683.605,1432.454z M1889.34,1796.511
		c-22.322,0-40.237-17.802-40.237-39.78c0-21.965,17.922-39.786,40.237-39.786c22.322,0,40.291,17.828,40.291,39.786
		C1929.631,1778.696,1911.662,1796.511,1889.34,1796.511z"/>
	<path d="M1781.422,1264.867c-217.452,0-394.357,190.131-394.357,423.834c0,233.697,176.905,423.813,394.357,423.813
		s394.357-190.118,394.357-423.815C2175.785,1454.991,1998.875,1264.867,1781.422,1264.867z M1781.422,2072.404
		c-195.325,0-354.207-172.135-354.207-383.704c0-211.591,158.888-383.717,354.207-383.717s354.207,172.135,354.207,383.717
		C2135.635,1900.277,1976.754,2072.404,1781.422,2072.404z"/>
</g>
</svg>
