<?xml version='1.0' encoding='utf-8'?>
<svg xmlns="http://www.w3.org/2000/svg" viewBox="0 0 4096 4096"> <clipPath id="e"> <rect width="4096" height="4096"/> </clipPath> <g clip-path="url(#e)"> <path transform="scale(4)" d="m840.73 914.45c2.956-1.729 7.025-2.339 10.349-3.15 3.894-0.95 7.61-2.172 11.327-3.663 6.397-2.565 13.827-6.014 19.341-10.245 2.705-2.076 4.935-4.442 7.861-6.267l0.577-0.35c-1.285 7.427-9.377 12.968-15.227 17.077-9.901 6.954-21.145 11.31-32.802 14.297-0.106-2.553-0.79-5.236-1.426-7.699z" fill="#0F7E51"/> <path transform="scale(4)" d="m817.53 901.14c2.774-2.413 6.363-5.226 10.241-5.158 2.286 0.04 4.015 1.807 5.414 3.423 3.618 4.178 5.726 9.903 7.551 15.038 0.636 2.463 1.32 5.146 1.426 7.699-7.315 1.362-14.59 2.563-22.018 3.108l-11.358 0.633c-1.92 0.086-4.34-0.102-6.185 0.377 1.331-2.752 2.045-5.731 3.109-8.59 2.519-6.771 6.783-11.506 11.82-16.53z" fill="#F9DC6B"/> <path transform="scale(4)" d="m146.41 118.35c-11.424 2.614-20.183 6.23-28.337 14.991 2.458-8.11 7.504-16.001 13.166-22.273 6.724-7.45 18.993-20.062 29.583-20.295 4.159-0.0917 6.653 1.5613 9.527 4.3968 4.195 5.2253 11.181 11.019 12.476 17.83l-0.223 0.838c0.421 1.373 0.469 1.335-0.115 2.637-2.558 1.457-5.586 0.644-8.4 0.604l-12.246-0.029c-5.053 0.066-10.475 0.344-15.431 1.3z" fill="#106090"/> <path transform="scale(4)" d="m508.22 121.5c52.765 44.78 77.219 111.97 82.66 179.48l-0.593 46.763c-2.743-1.9-5.211-5.183-7.792-7.425-9.371-8.142-22.741-13.89-35.198-14.754-4.736-0.329-9.733 0.296-14.471 0.606-1.552-1.402-0.607-5.151-0.346-7.178 1.622-12.603 3.591-25.263 4.382-37.957 0.727-11.665 0.379-23.739 0.262-35.429-0.31-31.124-6.056-63.721-16.502-93.058-2.207-6.196-4.855-12.221-7.541-18.22-1.768-3.948-4.349-8.512-4.861-12.831z" fill="#0F7E51"/> <path transform="scale(4)" d="m213.45 877.26 6.817-28.697c5.41-18.977 12.237-37.347 19.822-55.55 13.73-32.951 30.629-65.483 54.394-92.349 9.231 19.354 19.188 40.372 35.186 55.151 1.336 1.465 2.673 3.249 4.275 4.405l16.003 15.82c7.589 6.835 15.648 12.883 23.84 18.966 3.857 2.863 8.503 6.772 12.881 8.635-1.134 26.311-8.243 50.351-18.068 74.646-1.163 2.877-3.029 9.545-5.408 11.505-2.55 2.1-6.07 3.714-8.961 5.349-21.591 12.203-45 14.546-69.298 15.458-9.2 0.564-18.332-0.138-27.431-1.536-5.199-0.799-10.524-1.731-15.424-3.705l-1.244-0.091c-1.856-1.016-4.59-1.529-6.644-2.198-6.574-2.144-18.452-5.971-22.043-12.56-1.929-3.539 0.263-9.618 1.303-13.249z" fill="#0F7E51"/> <path transform="scale(4)" d="m242.08 905.36c5.516-9.807 12.43-24.221 24.132-27.622 2.718-0.791 4.913-0.136 7.402 1.186 5.227 2.777 7.753 10.18 9.182 15.519 1.431 5.351 1.752 10.664 2.139 16.158-9.2 0.564-18.332-0.138-27.431-1.536-5.199-0.799-10.524-1.731-15.424-3.705z" fill="#F9DC6B"/> <path transform="scale(4)" d="m213.45 877.26c4.651-5.95 11.159-12.88 19.052-13.829 2.798-0.337 5.556-0.151 7.807 1.723 3.009 2.506 3.922 6.664 4.134 10.404 0.26 4.581-0.6 9.067-1.247 13.583l-2.362 16.126c-1.856-1.016-4.59-1.529-6.644-2.198-6.574-2.144-18.452-5.971-22.043-12.56-1.929-3.539 0.263-9.618 1.303-13.249z" fill="#F9DC6B"/> <path transform="scale(4)" d="m851.81 697 12.59 14.423c23.825 24.899 52.002 41.91 85.774 49.462 7.645 1.71 15.408 2.504 23.177 3.368-0.13 1.087-0.228 0.953-0.955 1.678-17.77 20.255-48.14 32.771-74.732 34.524l-30.751 0.27c8.028 20.027 14.974 39.996 19.138 61.237l3.082 19.84c0.359 2.806 0.187 6.329 1.057 8.974l-0.577 0.35c-2.926 1.825-5.156 4.191-7.861 6.267-5.514 4.231-12.944 7.68-19.341 10.245-3.717 1.491-7.433 2.713-11.327 3.663-3.324 0.811-7.393 1.421-10.349 3.15-1.825-5.135-3.933-10.86-7.551-15.038-1.399-1.616-3.128-3.383-5.414-3.423-3.878-0.068-7.467 2.745-10.241 5.158-5.037 5.024-9.301 9.759-11.82 16.53-1.064 2.859-1.778 5.838-3.109 8.59l-1.723-0.428c-5.328 0.58-11.376 0.036-16.683-0.635-6.574-0.831-13.855-1.628-18.16-7.217l-0.201-0.439-0.313-0.74c-2.521-5.88-3.289-12.747-3.964-19.071-1.032-9.676-1.575-19.463-1.044-29.192 0.137-2.523 0.621-4.927 1.079-7.4 0.157-0.849 0.7-2.48 0.62-3.238-0.131-1.262-1.776-3.944-2.341-5.307l-4.32-11.663c-3.348-9.701-6.15-20.08-7.924-30.181-0.406-3.703-1.767-7.634-2.67-11.265-1.882-7.569-3.283-14.503-3.56-22.33-0.496-13.976 5.804-24.557 15.131-34.402 10.66-7.246 20.118-10.463 32.885-12.086 10.98 1.084 21.273 4.188 30.036 11.139l10.932 7.981c2.357-5.644 5.893-10.993 8.372-16.685 4.867-11.173 8.391-22.929 12.173-34.501l0.885-1.608z" fill="#49B162"/> <path transform="scale(4)" d="m851.81 697 12.59 14.423c-0.995 3.944-3.132 7.638-4.998 11.243-6.182 11.938-13.629 22.852-22.254 33.151-1.889-1.873-4.377-4.929-6.768-6.023 2.357-5.644 5.893-10.993 8.372-16.685 4.867-11.173 8.391-22.929 12.173-34.501l0.885-1.608z" fill="#0F7E51"/> <path transform="scale(4)" d="m866.91 800.72-8.037-15.972c-3.704-6.602-8.607-12.945-13.249-18.923l17.057 5.423c21.196 5.742 42.339 7.86 64.222 5.844 8.055-0.742 16.469-2.351 24.267-4.485 3.833-1.048 7.646-2.267 11.346-3.72 2.379-0.935 5.765-3.069 8.233-3.212 0.834-0.049 0.951 0.04 1.644 0.251-17.77 20.255-48.14 32.771-74.732 34.524l-30.751 0.27z" fill="#0F7E51"/> <path transform="scale(4)" d="m789.41 730.67c10.98 1.084 21.273 4.188 30.036 11.139l-0.723 0.23c-3.387 1.015-7.616 0.622-11.223 1.336-5.15 1.019-8.87 2.996-13.263 5.79-3.408 2.167-6.362 5.56-8.622 8.877-12.958 19.02-19.032 43.734-19.157 66.544-0.03 5.514-0.113 11.002 0.863 16.45 3.788 21.151 19.184 39.075 36.423 51 4.345 3.006 10.057 5.431 13.783 9.108-5.037 5.024-9.301 9.759-11.82 16.53-1.064 2.859-1.778 5.838-3.109 8.59l-1.723-0.428c-5.328 0.58-11.376 0.036-16.683-0.635-6.574-0.831-13.855-1.628-18.16-7.217l-0.201-0.439-0.313-0.74c-2.521-5.88-3.289-12.747-3.964-19.071-1.032-9.676-1.575-19.463-1.044-29.192 0.137-2.523 0.621-4.927 1.079-7.4 0.157-0.849 0.7-2.48 0.62-3.238-0.131-1.262-1.776-3.944-2.341-5.307l-4.32-11.663c-3.348-9.701-6.15-20.08-7.924-30.181-0.406-3.703-1.767-7.634-2.67-11.265-1.882-7.569-3.283-14.503-3.56-22.33-0.496-13.976 5.804-24.557 15.131-34.402 10.66-7.246 20.118-10.463 32.885-12.086z" fill="#0F7E51"/> <path transform="scale(4)" d="m766.03 917.98c1.354-8.459 4.389-16.632 11.534-21.944 1.507-1.121 4.13-2.297 6.052-1.921 3.806 0.745 6.509 3.69 8.399 6.892 4.528 7.669 6.491 16.337 8.858 24.825-5.328 0.58-11.376 0.036-16.683-0.635-6.574-0.831-13.855-1.628-18.16-7.217z" fill="#F9DC6B"/> <path transform="scale(4)" d="m552.65 743.74c9.664-4.315 20.437-4.444 30.343-0.634 25.614 9.852 40.692 35.929 51.074 59.8l8.887 23.431 5.689 18.504c0.819 2.831 1.515 7.47 3.093 9.859 2.404 6.389 3.644 13.502 5.073 20.182 3.622 16.927 6.588 33.824 7.701 51.118 0.2 3.098 1.067 7.96-0.076 10.75-0.435 1.06-1.117 1.962-1.77 2.891l-0.542 0.783c-14.345 20.245-49.061 25.979-71.788 31.11l-3.752 0.851c-12.149 1.91-24.967 2.139-37.25 1.572-1.768-0.082-6.048-0.071-7.476-0.908l-1.309 0.257c-11.396-1.089-25.906-2.38-35.56-9.202-3.082-2.178-3.485-5.071-4.143-8.514-6.378-29.535-3.092-61.513 1.271-91.117 0.894-6.063 1.46-12.215 2.735-18.206l8.151-38.767c2.168-8.648 5.016-16.998 7.827-25.446 1.478-2.13 2.635-4.878 3.845-7.184 5.086-13.373 16.249-23.556 27.977-31.13z" fill="#49B162"/> <path transform="scale(4)" d="m541.85 973.05c0.295-5.281 1.444-10.648 3.446-15.55 2.801-6.859 8.083-15.033 15.243-17.852 2.783-1.095 4.86-1.134 7.568 0.178 10.045 4.865 14.922 22.678 18.469 32.56-12.149 1.91-24.967 2.139-37.25 1.572-1.768-0.082-6.048-0.071-7.476-0.908z" fill="#F9DC6B"/> <path transform="scale(4)" d="m500.84 955.59c2.333-8.716 3.506-20.031 12.16-25.007 2.123-1.22 4.735-1.585 7.12-0.924 3.91 1.082 6.628 5.003 8.409 8.423 3.56 6.838 5.006 14.552 7.045 21.918 1.276 4.607 3.027 8.947 4.969 13.306-11.396-1.089-25.906-2.38-35.56-9.202-3.082-2.178-3.485-5.071-4.143-8.514z" fill="#F9DC6B"/> <path transform="scale(4)" d="m552.65 743.74c9.664-4.315 20.437-4.444 30.343-0.634 25.614 9.852 40.692 35.929 51.074 59.8l8.887 23.431 5.689 18.504c0.819 2.831 1.515 7.47 3.093 9.859 2.404 6.389 3.644 13.502 5.073 20.182 3.622 16.927 6.588 33.824 7.701 51.118 0.2 3.098 1.067 7.96-0.076 10.75-0.435 1.06-1.117 1.962-1.77 2.891l-0.542 0.783c-14.345 20.245-49.061 25.979-71.788 31.11l0.198-0.408 0.296-0.571c1.558-3.222 7.879-5.479 10.905-7.486 17.699-11.74 35.415-33.426 39.333-54.814 1.411-7.7-0.386-16.913-1.382-24.593-2.211-17.04-5.558-33.604-10.141-50.162-4.961-17.927-11.21-36.144-22.112-51.426-9.814-13.758-24.462-25.4-41.563-28.031-11.125-1.71-19.997 2.241-28.864 8.499-2.492 1.759-4.931 3.803-6.891 6.158-1.526 1.833-2.654 4.222-4.617 5.61l-0.823 0.56c5.086-13.373 16.249-23.556 27.977-31.13z" fill="#0F7E51"/> <path transform="scale(4)" d="m278.34 520.03c46.569 5.88 94.763-0.826 139.54-14.303 1.029 7.601 3.418 15.097 5.393 22.507l6.576 24.65 8.447 24.788c2.174 6.374 4.03 13.279 6.745 19.421l1.581 4.323 17.291 35.53 1.969 3.449c8.3 14.792 18.01 30.527 30.518 42.151l2.319 2.573c9.398 9.21 19.205 17.726 30.225 24.974l14.962 9.148c1.038 0.544 2.221 1.039 3.163 1.728l-0.269 0.757c-1.864 5.344-3.285 10.035-5.86 15.158 4.037 2.039 8.194 3.968 11.706 6.853-11.728 7.574-22.891 17.757-27.977 31.13-1.21 2.306-2.367 5.054-3.845 7.184-2.811 8.448-5.659 16.798-7.827 25.446l-8.151 38.767c-22.006-3.611-43.578-8.334-64.667-15.671l-14.144-5.777-6.031-2.914-33.338-18.264c-4.378-1.863-9.024-5.772-12.881-8.635-8.192-6.083-16.251-12.131-23.84-18.966l-16.003-15.82c-1.602-1.156-2.939-2.94-4.275-4.405-15.998-14.779-25.955-35.797-35.186-55.151l-4.964-13.145-2.108-5.552c-3.235-7.166-5.232-15.74-6.817-23.418-3.341-16.18-4.899-32.65-6.237-49.097l-0.515-4.944 0.736-46.09 3.764-38.385z" fill="#C8910E"/> <path transform="scale(4)" d="m446.62 601.42c-2.469 1.595-6.977 5.41-9.872 5.483-0.787-1.548-0.675-1.97-0.563-3.652 2.676-2.328 5.89-4.198 8.854-6.154l1.581 4.323z" fill="#8E4F14"/> <path transform="scale(4)" d="m463.91 636.95 1.969 3.449c-3.408 3.659-6.517 7.369-10.632 10.282-1.071-1.359-1.073-1.773-1.315-3.43l9.978-10.301z" fill="#8E4F14"/> <path transform="scale(4)" d="m274.58 558.42c8.69 8.145 17.061 16.231 26.424 23.654 14.892 11.805 31.583 21.427 48.761 29.482 8.438 3.957 17.454 7.325 26.239 10.433 2.208 0.782 7.944 1.679 9.462 3.001-30.026 6.446-60.561 3.276-88.764-8.978-4.802-2.086-9.813-3.996-14.222-6.855-2.601-1.686-5.479-4.533-8.636-4.647l0.736-46.09z" fill="#FDB60C"/> <path transform="scale(4)" d="m274.36 609.45c27.408 16.486 60.17 25.205 92.2 22.46 9.522-0.816 18.679-3.316 28.105-4.585 2.365-0.319 4.389 0.455 6.683 0.856 3.606 0.629 7.619 0.61 11.182-0.248 10.039-2.416 18.476-7.053 28.05-10.409l8.023 19.587c1.483 3.277 3.976 6.927 4.708 10.399-33.565 28.368-77.987 48.587-122.76 44.873-10.526-0.873-20.978-3.503-31.048-6.584-4.06-1.242-7.872-3.156-12.086-3.834-3.235-7.166-5.232-15.74-6.817-23.418-3.341-16.18-4.899-32.65-6.237-49.097z" fill="#FDB60C"/> <path transform="scale(4)" d="m289.52 687.52c6.508 0.759 11.785 3.001 17.955 4.911 5.26 1.628 10.712 2.665 16.169 3.359 43.168 5.496 89.147-11.093 122.87-37.759l8.394-7.031 18.337 26.86c4.487 5.987 9.915 11.44 14.864 17.058l-0.163 0.3c-3.996 5.683-9.377 10.97-14.265 15.894-8.517 8.581-17.446 16.362-27.677 22.869-17.576 11.178-38.411 18.505-58.891 22.018-18.977 3.256-38.476 2.273-57.442-0.183-15.998-14.779-25.955-35.797-35.186-55.151l-4.964-13.145z" fill="#FDB60C"/> <path transform="scale(4)" d="m496.4 682.55 2.319 2.573c9.398 9.21 19.205 17.726 30.225 24.974l14.962 9.148c1.038 0.544 2.221 1.039 3.163 1.728l-0.269 0.757c-1.864 5.344-3.285 10.035-5.86 15.158 4.037 2.039 8.194 3.968 11.706 6.853-11.728 7.574-22.891 17.757-27.977 31.13-1.21 2.306-2.367 5.054-3.845 7.184-2.811 8.448-5.659 16.798-7.827 25.446l-8.151 38.767c-22.006-3.611-43.578-8.334-64.667-15.671l-14.144-5.777-6.031-2.914-33.338-18.264c-4.378-1.863-9.024-5.772-12.881-8.635-8.192-6.083-16.251-12.131-23.84-18.966l-16.003-15.82c-1.602-1.156-2.939-2.94-4.275-4.405 18.966 2.456 38.465 3.439 57.442 0.183 20.48-3.513 41.315-10.84 58.891-22.018 10.231-6.507 19.16-14.288 27.677-22.869 4.888-4.924 10.269-10.211 14.265-15.894l0.163-0.3 8.295-12.368z" fill="#FDB60C"/> <path transform="scale(4)" d="m537.01 735.5 3.526 1.567c-7.802 12.421-16.003 23.965-25.764 34.936-3.528 3.965-7.171 8.197-11.353 11.488l-11.951 9.939c-10.906 8.309-23.972 16.358-36.786 21.293l-15.678 5.347c-4.465 1.346-8.946 2.261-12.965 4.752l-6.031-2.914c4.691-2.063 10.11-3.07 15.041-4.531 5.934-1.759 11.693-3.977 17.424-6.306 28.22-11.473 52.617-31.472 71.015-55.568 4.918-6.441 9.027-13.291 13.522-20.003z" fill="#C8910E"/> <path transform="scale(4)" d="m540.94 736.89c4.037 2.039 8.194 3.968 11.706 6.853-11.728 7.574-22.891 17.757-27.977 31.13-1.21 2.306-2.367 5.054-3.845 7.184 0.26-1.693 0.584-3.188 1.159-4.804l-0.437-1-1.046-0.186c-15.951 12.317-29.987 27.579-46.982 38.55-5.804 3.746-11.98 6.979-18.315 9.726-4.335 1.881-11.455 3.344-15.024 6.256l-14.144-5.777c4.019-2.491 8.5-3.406 12.965-4.752l15.678-5.347c12.814-4.935 25.88-12.984 36.786-21.293l11.951-9.939c4.182-3.291 7.825-7.523 11.353-11.488 9.761-10.971 17.962-22.515 25.764-34.936l0.408-0.177z" fill="#FDB60C"/> <path transform="scale(4)" d="m496.4 682.55 2.319 2.573c9.398 9.21 19.205 17.726 30.225 24.974l14.962 9.148c1.038 0.544 2.221 1.039 3.163 1.728l-0.269 0.757c-1.864 5.344-3.285 10.035-5.86 15.158l-0.408 0.177-3.526-1.567-4e-3 -0.351c-12.706-7.347-24.725-17.191-35.584-27.028-3.536-3.203-6.718-6.764-10.39-9.821-9.47 11.106-19.541 21.636-31.028 30.692-24.424 19.254-56.149 30.349-86.986 32.863-8.111 0.662-15.943 0.65-24.052-0.167-4.812-0.485-10.225-1.75-15.02-1.465-1.602-1.156-2.939-2.94-4.275-4.405 18.966 2.456 38.465 3.439 57.442 0.183 20.48-3.513 41.315-10.84 58.891-22.018 10.231-6.507 19.16-14.288 27.677-22.869 4.888-4.924 10.269-10.211 14.265-15.894l0.163-0.3 8.295-12.368z" fill="#C8910E"/> <path transform="scale(4)" d="m496.4 682.55 2.319 2.573c-1.95 4.73-4.536 9.004-7.51 13.158l-3.267-3.063 0.163-0.3 8.295-12.368z" fill="#8E4F14"/> <path transform="scale(4)" d="m543.91 719.24c1.038 0.544 2.221 1.039 3.163 1.728l-0.269 0.757c-1.864 5.344-3.285 10.035-5.86 15.158l-0.408 0.177-3.526-1.567-4e-3 -0.351c3.12-3.864 5.108-11.195 6.904-15.902z" fill="#8E4F14"/> <path transform="scale(4)" d="m440.18 830.6c3.569-2.912 10.689-4.375 15.024-6.256 6.335-2.747 12.511-5.98 18.315-9.726 16.995-10.971 31.031-26.233 46.982-38.55l1.046 0.186 0.437 1c-0.575 1.616-0.899 3.111-1.159 4.804-2.811 8.448-5.659 16.798-7.827 25.446l-8.151 38.767c-22.006-3.611-43.578-8.334-64.667-15.671z" fill="#C8910E"/> <path transform="scale(4)" d="m278.34 520.03h-0.213c-24.717-2.406-49.737-11.616-72.127-21.997-41.487-19.236-81.668-44.637-110.25-80.999-16.379-20.837-29.889-45.657-34.508-71.996-1.4732-8.4-2.2549-16.788-1.1892-25.291 1.6967-13.537 6.8942-25.98 17.814-34.523 0.3485 3.918 0.8022 7.34 2.7043 10.872 7.8027 15.09 20.559 23.298 36.429 28.364 11.482 3.665 23.814 5.147 35.844 4.325 4.199-0.287 9.318-1.823 13.387-1.355 2.874 7.213 5.792 14.293 10.382 20.624 4.189 5.779 9.8 10.753 15.312 15.245 4.88 3.206 9.865 6.545 15.124 9.091 17.915 8.673 39.156 12.175 58.966 10.829 26.646-1.811 55.54-10.163 76.096-27.741 4.919-4.206 9.149-9.156 13.391-14.025 0.347-1.052 0.904-2.084 1.364-3.095l0.884-0.223 6.631 5.396c10.188 7.363 21.772 11.32 34.119 13.102 23.944 3.456 47.99-1.702 70.474-9.833 21.125-7.64 41.477-17.075 63.853-20.625 4.738-0.31 9.735-0.935 14.471-0.606 12.457 0.864 25.827 6.612 35.198 14.754 2.581 2.242 5.049 5.525 7.792 7.425-1.885 15.755-5.587 30.53-12.564 44.853l-10.72 19.601-12.307 16.529-2.786 3.51-11.858 12.822-9.15 8.954c-24.307 18.459-51.116 33.262-80.506 41.972l-5.805 1.902-4.338 1.729c5.409 20.94 11.567 41.174 19.085 61.453 3.653 9.852 7.092 19.55 12.283 28.72 8.523 17.052 18.017 33.524 28.754 49.276 9.585 14.062 19.93 27.207 32.79 38.478 21.297 18.667 46.527 31.047 73.218 39.948 17.388 5.799 35.936 9.258 54.137 11.155 12.958 1.35 26.192 2.195 39.229 1.704 35.798-1.351 71.807-10.672 103.83-26.707 17.148-8.586 33.556-19.723 47.498-32.868 11.629-10.964 21.028-22.415 26.153-37.756l4.53-16.258c4.826 3.382 9.967 6.957 14.091 11.195-5.794 21.842-14.329 40.314-30.268 56.714-2.706 2.785-5.505 5.318-8.525 7.764-1.665 1.349-3.975 2.847-5.251 4.556l-0.885 1.608c-3.782 11.572-7.306 23.328-12.173 34.501-2.479 5.692-6.015 11.041-8.372 16.685l-10.932-7.981c-8.763-6.951-19.056-10.055-30.036-11.139-12.767 1.623-22.225 4.84-32.885 12.086-9.327 9.845-15.627 20.426-15.131 34.402 0.277 7.827 1.678 14.761 3.56 22.33 0.903 3.631 2.264 7.562 2.67 11.265-19.448 14.45-40.816 27.794-63.943 35.419-10.427 3.438-21.323 5.752-31.949 8.527-1.578-2.389-2.274-7.028-3.093-9.859l-5.689-18.504-8.887-23.431c-10.382-23.871-25.46-49.948-51.074-59.8-9.906-3.81-20.679-3.681-30.343 0.634-3.512-2.885-7.669-4.814-11.706-6.853 2.575-5.123 3.996-9.814 5.86-15.158l0.269-0.757c-0.942-0.689-2.125-1.184-3.163-1.728l-14.962-9.148c-11.02-7.248-20.827-15.764-30.225-24.974l-2.319-2.573c-12.508-11.624-22.218-27.359-30.518-42.151l-1.969-3.449-17.291-35.53-1.581-4.323c-2.715-6.142-4.571-13.047-6.745-19.421l-8.447-24.788-6.576-24.65c-1.975-7.41-4.364-14.906-5.393-22.507-44.777 13.477-92.971 20.183-139.54 14.303z" fill="#F9DC6B"/> <path transform="scale(4)" d="m789.41 730.67c3.263-1.825 7.477-2.842 11.013-4.175 5.796-2.184 11.737-4.811 17.225-7.675 6.371-3.326 12.484-7.088 18.474-11.053 4.816-3.188 9.575-6.672 14.801-9.163-3.782 11.572-7.306 23.328-12.173 34.501-2.479 5.692-6.015 11.041-8.372 16.685l-10.932-7.981c-8.763-6.951-19.056-10.055-30.036-11.139z" fill="#C8910E"/> <defs> <linearGradient id="d" x1="296.19" x2="263.97" y1="425.49" y2="390.09" gradientUnits="userSpaceOnUse"> <stop stop-color="#E07165" offset="0"/> <stop stop-color="#F4A992" offset="1"/> </linearGradient> </defs> <path transform="scale(4)" d="m228.08 426.19c8.171-13.145 18.557-21.769 32.252-28.76 17.218-8.79 39.329-14.013 58.672-11.345 4.931 0.681 9.702 2.243 14.421 3.768-14.701 20.572-36.249 36.74-61.553 41.042-11.822 2.01-23.969 1.718-35.481-1.722-2.814-0.841-5.765-1.485-8.311-2.983z" fill="url(#d)"/> <path transform="scale(4)" d="m355.5 341.46c-3.816 17.308-11.544 34.14-22.081 48.399-4.719-1.525-9.49-3.087-14.421-3.768-19.343-2.668-41.454 2.555-58.672 11.345-13.695 6.991-24.081 15.615-32.252 28.76-5.39-2.585-10.479-5.702-15.005-9.626-15.688-13.601-19.7-33.508-21.146-53.264 4.88 3.206 9.865 6.545 15.124 9.091 17.915 8.673 39.156 12.175 58.966 10.829 26.646-1.811 55.54-10.163 76.096-27.741 4.919-4.206 9.149-9.156 13.391-14.025z" fill="#7C1C37"/> <defs> <linearGradient id="c" x1="587.65" x2="729.91" y1="682.25" y2="825.94" gradientUnits="userSpaceOnUse"> <stop stop-color="#B9870F" offset="0"/> <stop stop-color="#DA9E0D" offset="1"/> </linearGradient> </defs> <path transform="scale(4)" d="m547.07 720.97c10.762 5.729 22.157 11.023 33.756 14.807 4.677 1.526 9.469 2.438 14.185 3.791 35.056 10.05 73.494 15.022 109.92 11.527 17.246-1.655 34.328-6.797 51.596-8.34-9.327 9.845-15.627 20.426-15.131 34.402 0.277 7.827 1.678 14.761 3.56 22.33 0.903 3.631 2.264 7.562 2.67 11.265-19.448 14.45-40.816 27.794-63.943 35.419-10.427 3.438-21.323 5.752-31.949 8.527-1.578-2.389-2.274-7.028-3.093-9.859l-5.689-18.504-8.887-23.431c-10.382-23.871-25.46-49.948-51.074-59.8-9.906-3.81-20.679-3.681-30.343 0.634-3.512-2.885-7.669-4.814-11.706-6.853 2.575-5.123 3.996-9.814 5.86-15.158l0.269-0.757z" fill="url(#c)"/> <path transform="scale(4)" d="m580.59 410.36c33.415-4.683 68.589 0.316 100.22 11.72 8.184 2.95 16.577 6.154 24.021 10.69 26.479 13.027 52.755 28.841 73.666 49.966 8.544 6.843 17.056 14.757 24.22 23.034l12.484 15.792c13.695 16.048 24.96 33.609 33.665 52.838l6.962 16.439c1.119 2.874 2.172 7.768 4.035 10.118 1.936 2.443 5.586 4.603 8.145 6.374l13.75 9.44-4.53 16.258c-5.125 15.341-14.524 26.792-26.153 37.756-13.942 13.145-30.35 24.282-47.498 32.868-32.023 16.035-68.032 25.356-103.83 26.707-13.037 0.491-26.271-0.354-39.229-1.704-18.201-1.897-36.749-5.356-54.137-11.155-26.691-8.901-51.921-21.281-73.218-39.948-12.86-11.271-23.205-24.416-32.79-38.478-10.737-15.752-20.231-32.224-28.754-49.276-5.191-9.17-8.63-18.868-12.283-28.72-7.518-20.279-13.676-40.513-19.085-61.453l4.338-1.729 5.805-1.902c29.39-8.71 56.199-23.513 80.506-41.972l9.15-8.954 11.858-12.822 2.786-3.51 12.307-16.529 13.589-1.848z" fill="#147CA8"/> <path transform="scale(4)" d="m471.62 589.8c-5.191-9.17-8.63-18.868-12.283-28.72-7.518-20.279-13.676-40.513-19.085-61.453l4.338-1.729c1.839 10.525 6.32 20.143 10.953 29.695l14.032 26.856 9.829 15.961c0.276 0.419 2.631 3.703 2.608 3.93-0.044 0.431-1.462 2.183-1.823 2.725l-6.781 10.262-1.788 2.473z" fill="#106090"/> <path transform="scale(4)" d="m716.84 571.62c4.532 6.089 7.275 14.095 10.319 21.042 4.8 10.953 10.224 21.898 16.917 31.831 3.29 4.883 6.331 9.324 11.346 12.632 10.005 6.598 25.773 5.103 36.814 2.525 15.836-3.696 34.549-10.347 44.351-24.179 3.299-4.655 5.309-9.956 8.298-14.772l-0.175 18.284c-0.053 3.208 0.259 7.329-0.921 10.333l-0.296 0.688c-1.091 2.587-2.483 4.551-4.206 6.727l-0.098 0.131c-5.373 6.038-11.985 11.074-18.605 15.66-24.282 16.82-53.237 26.079-82.409 29.57l-2.393-18.338c-1.094-11.183-1.708-22.448-3.426-33.561-3.081-19.925-8.603-39.653-15.516-58.573z" fill="#106090"/> <path transform="scale(4)" d="m554.7 428.73 0.152 0.944c1.136 6.752 3.002 11.569 1.379 18.572-4.029 17.384-14.588 34.072-23.614 49.345l-12.691 21.905-32.948 48.462c-5.587-6.442-9.693-14.138-13.683-21.632l-11.084-21.829-11.811-28.509c29.39-8.71 56.199-23.513 80.506-41.972l9.15-8.954 11.858-12.822 2.786-3.51z" fill="#106090"/> <path transform="scale(4)" d="m530.04 473.21c1.436 2.441 1.756 3.866 1.008 6.607-1.458 5.344-4.392 10.367-6.866 15.298-0.515 1.025-0.738 1.601-0.592 2.753-5.971 5.857-13.146 11.378-20.036 16.12-2.927 2.014-5.912 4.346-9.075 5.961-6.361 3.249-12.36 6.852-18.9 9.822-2.916 1.324-5.524 2.703-8.716 3.302 2.7-2.046 6.215-3.533 9.213-5.135 4.775-2.553 9.447-5.338 13.853-8.492 11.171-7.999 20.948-18.659 28.821-29.876 3.817-5.438 7.128-11.161 11.29-16.36z" fill="#147CA8"/> <path transform="scale(4)" d="m540.05 445.07 11.858-12.822c2.527 3.563 3.051 8.855 2.332 13.1-3.232 19.081-17.338 38.985-30.653 52.522-0.146-1.152 0.077-1.728 0.592-2.753 2.474-4.931 5.408-9.954 6.866-15.298 0.748-2.741 0.428-4.166-1.008-6.607l0.021-0.275-1.363-1.788c-1.095-1.621-1.271-3.131-0.921-5.022l0.125-0.623c0.643-3.391 3.561-8.327 3.001-11.48l9.15-8.954z" fill="#2AA6C6"/> <path transform="scale(4)" d="m530.9 454.02 9.15-8.954c1.338 5.835-2.164 12.461-4.546 17.684-1.37 3.004-2.579 6.055-4.383 8.84l-1.063 1.343-1.363-1.788c-1.095-1.621-1.271-3.131-0.921-5.022l0.125-0.623c0.643-3.391 3.561-8.327 3.001-11.48z" fill="#147CA8"/> <path transform="scale(4)" d="m580.59 410.36c33.415-4.683 68.589 0.316 100.22 11.72 8.184 2.95 16.577 6.154 24.021 10.69l0.265 0.583c1.063 2.873 2.369 3.571 4.258 5.791 2.376 2.792 4.999 6.562 6.779 9.776 1.754 3.167 2.428 6.745 1.325 10.255-1.484 4.719-5.426 7.684-9.599 9.893-22.576 11.956-52.136 2.217-74.812-4.92-15.756-4.958-31.739-12.987-45.05-22.747-5.288-3.878-10.355-7.981-13.374-13.94l-0.349-0.708c-1.058-2.111-1.761-4.099-1.184-6.5 0.413-1.724 2.681-5.328 4.216-6.134l0.688-0.29c1.626-0.887 1.957-1.879 2.596-3.469z" fill="#2AA6C6"/> <path transform="scale(4)" d="m815.2 521.56c-0.376 0.706-1.034 1.37-0.782 2.172 1.285 4.101 4.707 8.786 6.828 12.59 6.395 11.471 11.861 26.7 9.969 40.081-1.503 10.638-4.818 18.533-13.164 25.773-8.674 7.525-22.624 11.772-33.993 11.048-18.804-1.196-33.087-8.592-45.394-22.926-11.734-13.667-18.206-31.096-25.286-47.394-4.181-9.625-8.799-19.166-11.368-29.389-1.326-5.274-2.064-10.574-1.545-16.014 0.624-6.544 3.658-14.283 8.92-18.449 13.582-10.753 37.286-7.976 52.611-2.534 5.221 1.853 10.376 5.612 15.911 6.167l0.589 0.049c8.544 6.843 17.056 14.757 24.22 23.034l12.484 15.792z" fill="#2AA6C6"/> <path transform="scale(4)" d="m595.83 473.22c8.564-1.027 18.938-0.098 27.238 2.015l1.893 0.484c9.04 2.305 17.27 7.436 24.436 13.271 15.389 12.531 26.753 28.101 36.691 45.104 11.132 19.046 20.232 45.434 14.212 67.525-1.61 5.905-4.857 12.734-10.511 15.774l-0.596 0.303c-10.889 5.665-24.245 4.184-36.094 3.785-6.258-0.811-12.215-2.791-18.132-4.909-11.641-4.167-22.792-9.536-32.995-16.55-24.37-16.753-42.926-39.155-52.076-67.518-1.467-4.547-3.223-9.642-4.032-14.344l-0.111-0.673c-1.125-6.257-1.963-17.51 0.46-23.427l0.245-0.556c0.498-1.183 0.99-2.005 1.841-2.988 2.589-2.988 6.033-5.186 9.422-7.151 11.631-6.746 24.846-9.19 38.109-10.145z" fill="#2AA6C6"/> <defs> <linearGradient id="b" x1="298.94" x2="331.05" y1="386.84" y2="52.114" gradientUnits="userSpaceOnUse"> <stop stop-color="#4AB262" offset="0"/> <stop stop-color="#7EC25C" offset="1"/> </linearGradient> </defs> <path transform="scale(4)" d="m170.35 95.168c6.066-3.8968 12.055-8.0669 18.402-11.487 58.98-31.78 130.79-38.986 195.84-24.889 24.334 5.2731 48.224 12.914 70.309 24.556 11.797 6.2184 22.6 13.542 33.245 21.53 6.799 5.103 14.197 10.49 20.072 16.628 0.512 4.319 3.093 8.883 4.861 12.831 2.686 5.999 5.334 12.024 7.541 18.22 10.446 29.337 16.192 61.934 16.502 93.058 0.117 11.69 0.465 23.764-0.262 35.429-0.791 12.694-2.76 25.354-4.382 37.957-0.261 2.027-1.206 5.776 0.346 7.178-22.376 3.55-42.728 12.985-63.853 20.625-22.484 8.131-46.53 13.289-70.474 9.833-12.347-1.782-23.931-5.739-34.119-13.102l-6.631-5.396-0.884 0.223c-0.46 1.011-1.017 2.043-1.364 3.095-4.242 4.869-8.472 9.819-13.391 14.025-20.556 17.578-49.45 25.93-76.096 27.741-19.81 1.346-41.051-2.156-58.966-10.829-5.259-2.546-10.244-5.885-15.124-9.091-5.512-4.492-11.123-9.466-15.312-15.245-4.59-6.331-7.508-13.411-10.382-20.624-4.069-0.468-9.188 1.068-13.387 1.355-12.03 0.822-24.362-0.66-35.844-4.325-15.87-5.066-28.626-13.274-36.429-28.364-1.9021-3.532-2.3558-6.954-2.7043-10.872l4.2255-2.622c0.3984-2.536 0.2854-5.274 0.4587-7.855l1.4647-16.391c2.9921-26.309 6.8976-54.001 17.379-78.478 5.952-13.9 13.916-26.373 23.367-38.132l6.242-7.429 15.405-15.972c4.956-0.956 10.378-1.234 15.431-1.3l12.246 0.029c2.814 0.04 5.842 0.853 8.4-0.604 0.584-1.302 0.536-1.264 0.115-2.637l0.223-0.838c-1.295-6.811-8.281-12.605-12.476-17.83z" fill="url(#b)"/> <path transform="scale(4)" d="m77.867 285.23 4.2255-2.622c-0.1834 3.755 0.3553 10.311-1.5212 13.494-1.9021-3.532-2.3558-6.954-2.7043-10.872z" fill="#49B162"/> <path transform="scale(4)" d="m200.29 282.25c0.77-0.026 1.399 0.108 2.123 0.37 4.718 1.713 11.772 10.086 13.673 14.714 0.484 1.178 0.674 1.373 0.162 2.564l-2.5 0.011c-5.583-1.241-10.443-3.702-14.165-8.141-1.507-1.797-2.474-3.591-2.088-6.018 0.267-1.675 1.556-2.505 2.795-3.5z" fill="#041527"/> <path transform="scale(4)" d="m289.27 282.75c0.963-0.194 1.75-0.155 2.732-0.141 1.396 0.973 2.49 1.892 2.872 3.641 0.399 1.829 0.035 3.9-0.916 5.5-3.346 5.628-11 7.744-16.974 9.125l-5.053 0.704c3.753-7.842 9.289-15.129 17.339-18.829z" fill="#041527"/> <path transform="scale(4)" d="m131 134.32c8.149-1.047 17.457-2.96 25.51-0.991 14.906 3.646 23.821 14.098 31.617 26.626 5.024 8.073 8.986 17.082 11.685 26.202 1.14 3.852 2.111 6.988 1.47 11.029-2.214-7.711-6.017-16.873-10.311-23.683-6.526-10.35-16.81-19.69-29.015-22.439-12.166-2.74-23.861 2.235-33.921 8.706l-3.277-18.021 6.242-7.429z" fill="#0F7E51"/> <defs> <linearGradient id="a" x1="456.23" x2="441.92" y1="99.96" y2="135.23" gradientUnits="userSpaceOnUse"> <stop stop-color="#147BA7" offset="0"/> <stop stop-color="#116191" offset="1"/> </linearGradient> </defs> <path transform="scale(4)" d="m407.57 82.652c4.578 0.2934 9.005 0.7434 13.363 2.273 38.258 13.431 64.645 44.354 81.752 80.033l-10.315-11.349c-7.351-7.408-15.814-14.892-24.69-20.38-17.947-11.096-40.899-16.834-61.888-17.695-3.725-0.152-12.608 1.553-15.551-0.513-1.293-0.907-2.168-2.35-2.445-3.897-0.95-5.305 3.568-14.644 6.454-19.079 3.117-4.7893 7.703-8.1967 13.32-9.3932z" fill="url(#a)"/> <path transform="scale(4)" d="m306.28 64.211c4.285-0.2038 8.729 0.4016 12.985 0.8834 10.472 1.1854 21.528 3.3926 29.799 10.419 3.875 3.2919 6.617 7.7619 6.785 12.987 0.148 4.6096-2.634 8.9256-5.69 12.115-6.608 6.894-16.955 9.505-25.986 11.38-7.057 1.464-13.901 2.524-21.103 2.783-10.58 0.442-22.073-1.171-32.068-4.673-3.816-1.337-8.107-3.087-11.25-5.664-3.453-2.832-6.381-6.3737-6.685-11.019-0.218-3.3344 1.768-8.7021 3.945-11.263 12.08-14.211 31.796-16.945 49.268-17.948z" fill="#49B162"/> <path transform="scale(4)" d="m336.37 287.84c-2.633-0.684-4.746-4.571-6.082-6.857-13.944-23.859-16.977-54.126-9.836-80.72 6.594-24.556 23.846-48.93 46.053-61.723 24.186-13.934 52.085-17.289 79.031-9.969 20.564 5.585 40.062 19.454 50.586 38.149 14.086 25.023 17.36 57.098 9.474 84.634-6.448 22.516-18.924 40.647-39.598 52.151-3.277 1.823-7.273 4.376-11.14 4.231 9.633-6.452 18.808-13.99 25.128-23.863 2.961-4.624 5.054-9.793 6.878-14.954l2.534-14.361c2.67-23.386-5.68-48.353-20.377-66.493-12.334-15.225-32.697-27.725-52.383-29.734-20.974-2.142-39.505 4.003-55.775 17.403-19.443 16.013-31.566 40.652-33.991 65.493 0.015 8.759-7e-3 17.507 1.839 26.123 1.541 7.199 4.53 13.869 7.659 20.49z" fill="#0F7E51"/> <path transform="scale(4)" d="m326.87 241.22c-0.47 2.352-0.589 4.641-0.691 7.028-0.956-4.744-0.446-9.274 0.084-14.04 1.919-17.253 7.972-34.766 17.551-49.279 7.303-11.066 16.524-19.835 27.404-27.324 15.221-10.476 35.478-13.73 53.392-10.321 21.22 4.038 41.379 20.752 53.078 38.352 13.542 20.372 19.106 46.606 14.064 70.572-0.677 3.216-2.264 10.006-4.555 12.502l-0.335 0.202 2.534-14.361c2.67-23.386-5.68-48.353-20.377-66.493-12.334-15.225-32.697-27.725-52.383-29.734-20.974-2.142-39.505 4.003-55.775 17.403-19.443 16.013-31.566 40.652-33.991 65.493z" fill="#041527"/> <path transform="scale(4)" d="m128.04 159.77c10.06-6.471 21.755-11.446 33.921-8.706 12.205 2.749 22.489 12.089 29.015 22.439 4.294 6.81 8.097 15.972 10.311 23.683 0.604 2.665 1.361 5.673 0.953 8.407 3.509 23.175 0.444 45.037-13.705 64.451-8.483 11.641-21.003 22.422-35.659 24.837-11.67 1.924-23.399-2.317-32.718-9.22-13.551-10.039-22.181-26.133-24.453-42.749-0.4798-3.51-0.503-7.238-0.4593-10.777 0.0141-1.14 0.3949-3.478 0.0698-4.489-0.4379-1.029-0.433-1.741-0.3539-2.829 1.8895-25.981 13.636-48.018 33.079-65.047z" fill="#FEFEFE"/> <path transform="scale(4)" d="m128.04 159.77c10.06-6.471 21.755-11.446 33.921-8.706 12.205 2.749 22.489 12.089 29.015 22.439 4.294 6.81 8.097 15.972 10.311 23.683 0.604 2.665 1.361 5.673 0.953 8.407-6.064-17.678-15.244-36.448-32.945-45.06-8.484-4.128-18.519-5.008-27.479-1.841-18.072 6.388-30.621 22.328-38.524 39.19-4.1996 8.959-7.4917 19.834-7.9767 29.764-0.4379-1.029-0.433-1.741-0.3539-2.829 1.8895-25.981 13.636-48.018 33.079-65.047z" fill="#041527"/> <path transform="scale(4)" d="m157.69 180.71c9.862 0.304 19.961 3.27 27.561 9.854 10.24 8.871 15.025 20.98 15.93 34.288 1.059 15.553-4.582 31.704-14.852 43.401-7.667 8.732-17.651 13.816-29.229 14.519-10.02-0.367-19.086-2.704-26.916-9.238-10.496-8.758-15.804-21.593-16.884-35.032-1.183-14.73 2.485-30.55 12.346-41.901 8.391-9.661 19.354-14.944 32.044-15.891z" fill="#C8910E"/> <path transform="scale(4)" d="m181.4 224.54c0.455 6.781 0.867 13.436-1.505 19.956-2.494 6.856-7.846 13.492-14.607 16.487-4.923 2.181-11.225 3.033-16.289 1.081-6.832-2.634-11.839-7.532-14.75-14.243-3.703-8.536-3.974-17.599-0.467-26.235 2.721-6.701 8.153-13.079 15.009-15.702 5.406-2.068 11.614-1.931 16.881 0.359 3.553-1.037 7.948-1.501 11.308 0.328 3.191 1.736 5.088 4.558 6.131 8.003 0.973 3.213 0.394 6.475-1.306 9.319l-0.405 0.647z" fill="#7C1C37"/> <path transform="scale(4)" d="m165.67 206.25c3.553-1.037 7.948-1.501 11.308 0.328 3.191 1.736 5.088 4.558 6.131 8.003 0.973 3.213 0.394 6.475-1.306 9.319l-0.405 0.647-2.458 1.713c-3.386 2.151-6.966 3.105-10.941 2.065-2.897-0.758-5.35-2.965-6.725-5.585-1.312-2.499-2.458-5.521-1.549-8.296l0.246-0.691c1.179-3.486 2.897-5.254 5.699-7.503z" fill="#FEFEFE"/> <path transform="scale(4)" d="m326.87 241.22c2.425-24.841 14.548-49.48 33.991-65.493 16.27-13.4 34.801-19.545 55.775-17.403 19.686 2.009 40.049 14.509 52.383 29.734 14.697 18.14 23.047 43.107 20.377 66.493l-2.534 14.361c-1.824 5.161-3.917 10.33-6.878 14.954-6.32 9.873-15.495 17.411-25.128 23.863-12.071 6.475-23.616 10.935-37.11 13.393-8.193 1.492-18.226 2.091-26.494 1.048l-8.266-1.23c-15.004-2.784-28.567-10.526-38.644-21.985-3.021-3.436-5.385-7.366-7.974-11.122-3.129-6.621-6.118-13.291-7.659-20.49-1.846-8.616-1.824-17.364-1.839-26.123z" fill="#FEFEFE"/> <path transform="scale(4)" d="m333.68 242.54c0.846-17.604 6.719-33.022 19.985-45.042 10.159-9.205 24.476-14.624 38.201-13.905 13.861 0.725 27.09 7.686 36.258 17.984 10.613 11.921 15.596 28.684 14.526 44.474-1.107 16.328-9.095 32.604-21.402 43.455-10.958 9.663-24.662 12.951-38.954 11.96-2.153-0.15-4.151-0.523-6.198-1.224-0.806-0.69-1.528-1.107-2.482-1.561l-0.487-0.225c0.714-0.71 4.942-0.381 6.148-0.392 3.923-0.033 7.795-0.06 11.663-0.799 12.443-2.376 24.043-8.676 31.251-19.367l0.484-0.73c6.025-8.862 8.401-17.886 9.472-28.422l0.192-1.859c1.093-13.413-4.018-28.793-12.821-38.914-7.87-9.048-18.943-16.001-31.147-16.814-12.014-0.801-24.397 2.67-33.53 10.706-11.075 9.744-19.591 25.529-20.532 40.358l-0.627 0.317z" fill="#8E4F14"/> <path transform="scale(4)" d="m333.68 242.54 0.627-0.317c0.941-14.829 9.457-30.614 20.532-40.358 9.133-8.036 21.516-11.507 33.53-10.706 12.204 0.813 23.277 7.766 31.147 16.814 8.803 10.121 13.914 25.501 12.821 38.914l-0.192 1.859c-1.071 10.536-3.447 19.56-9.472 28.422l-0.484 0.73c-7.208 10.691-18.808 16.991-31.251 19.367-3.868 0.739-7.74 0.766-11.663 0.799-1.206 0.011-5.434-0.318-6.148 0.392l0.487 0.225c0.954 0.454 1.676 0.871 2.482 1.561-9.278-0.978-19.78-8.457-26.036-15.02-10.696-11.217-16.715-27.291-16.38-42.682z" fill="#C8910E"/> <path transform="scale(4)" d="m416.4 231.15c3.83 7.262 3.412 14.602 1.173 22.274-2.412 8.263-8.592 15.503-16.1 19.634-7.329 4.032-16.628 5.718-24.754 3.277l-0.721-0.228c-5.562-1.691-10.411-4.956-14.379-9.172-6.733-7.154-9.555-16.542-9.201-26.236 0.364-9.957 5.381-18.834 12.617-25.422 5.464-4.976 13.841-8.397 21.285-8.002 3.859 0.206 7.599 1.444 11.217 2.72 5.173-1.202 9.453-1.398 14.13 1.619 3.509 2.263 6.175 5.944 6.786 10.138 0.465 3.196-0.532 6.608-2.053 9.398z" fill="#7C1C37"/> <path transform="scale(4)" d="m397.54 209.99c5.173-1.202 9.453-1.398 14.13 1.619 3.509 2.263 6.175 5.944 6.786 10.138 0.465 3.196-0.532 6.608-2.053 9.398l-3.021 3.22c-3.164 2.747-7.278 3.592-11.381 3.252-3.391-0.281-7.077-2.759-9.193-5.292-2.736-3.276-3.896-7.349-3.302-11.578 0.699-4.986 4.153-8.041 8.034-10.757z" fill="#FEFEFE"/> </g> </svg>