<?xml version='1.0' encoding='utf-8'?>
<svg xmlns="http://www.w3.org/2000/svg" viewBox="0 0 4095 4095"> <clipPath id="c"> <rect width="4096" height="4096"/> </clipPath> <g clip-path="url(#c)"> <path transform="scale(4)" d="m317.56 956.12c22.318-0.63 42.015 3.517 62.597 12.084 13.411 5.582 26.675 13.13 37.312 23.112l7.233 7.2 0.521-0.483c0.374 1.067 1.113 2.462 0.938 3.572-11.316-6.908-22.616-13.748-34.649-19.36-24.758-11.546-51.837-18.441-79.135-19 1.556-2.604 3.183-4.846 5.183-7.125z" fill="#95491A"/> <path transform="scale(4)" d="m467.94 942.58 2.499-2.748c33.029 0.746 68.141 11.561 96.169 29.093 3.269 2.045 6.059 4.51 9.178 6.702l2.956 6.859-34.617-16.307c-19.074-7.286-39.636-14.323-59.917-17.153-1.893-0.265-5.794-1.152-7.518-0.38l-8.75-6.066z" fill="#95491A"/> <path transform="scale(4)" d="m765.21 473.05c5.914-2.726 11.963-5.253 17.705-8.327 4.888-2.616 9.74-6.111 14.839-8.219 2.958-1.223 6.218-2.035 9.25-3.105 8.275-2.921 16.684-5.743 25.352-7.235-3.072 10.097-8.451 19.389-14.343 28.089-8.843 13.059-19.108 25.248-30.07 36.579-2.594-4.554-4.607-11.07-8.082-14.898-0.442-1.355-1.091-2.412-1.846-3.603l-12.805-19.281z" fill="#F8E38E"/> <path transform="scale(4)" d="m524.68 911.6c19.755-5.593 40.599-5.452 60.472-0.412 7.502 1.902 14.934 4.281 21.725 8.058l6.417 3.744c-5.147 1.277-17.201 3.789-19.574 8.906-0.595 1.284-0.474 3.21 0.185 4.429l15.289 21.294-0.913-0.283-8.672-2.142c-0.186-0.581-0.402-1.24-0.737-1.753-1.189-1.821-4.957-3.457-6.926-4.603-11.627-6.769-24.468-11.961-37.402-15.629l-23.427-6.263c7.466-2.673 18.163-2.072 26.128-2.3-2.624-1.488-5.806-2.11-8.747-2.683-7.668-1.494-15.072-1.647-22.855-1.094l-0.963-9.269z" fill="#DF9823"/> <path transform="scale(4)" d="m514.47 888.1 10.211 23.506 0.963 9.269c7.783-0.553 15.187-0.4 22.855 1.094 2.941 0.573 6.123 1.195 8.747 2.683-7.965 0.228-18.662-0.373-26.128 2.3l23.427 6.263c12.934 3.668 25.775 8.86 37.402 15.629 1.969 1.146 5.737 2.782 6.926 4.603 0.335 0.513 0.551 1.172 0.737 1.753-7.071-0.863-14.213-1.984-21.322-0.938-1.686 0.248-4.164 0.65-5.54 1.715-1.172 0.908-1.256 2.499-1.252 3.869 0.016 5.553 2.236 10.725 4.283 15.786-3.119-2.192-5.909-4.657-9.178-6.702-28.028-17.532-63.14-28.347-96.169-29.093 9.047-9.577 20.996-15.908 32.567-21.845l-11.327-23.987 0.382-0.062c4.962-0.726 9.892-2.124 14.742-3.393 2.549-0.667 5.402-1.093 7.674-2.45z" fill="#C37030"/> <defs> <linearGradient id="b" x1="582.33" x2="670.24" y1="748.73" y2="716.47" gradientUnits="userSpaceOnUse"> <stop stop-color="#EC7F00" offset="0"/> <stop stop-color="#F6D351" offset="1"/> </linearGradient> </defs> <path transform="scale(4)" d="m628.72 648.5 4.915 4.572c15.367 15.388 27.361 35.594 34.922 55.931 3.946 10.614 6.905 21.859 6.838 33.265-0.112 19.284-10.254 39.212-23.933 52.478-13.066 12.673-29.502 17.292-47.37 17.021l-1.573-0.063 4.231-7.166c6.561-12.025 12.188-23.447 15.62-36.752 1.986-4.211 2.8-9.335 3.941-13.856 0.556 1.208 1.388 3.596 2.422 4.362l0.64 0.334 1.509 0.756c1.241 0.531 2.85 1.198 4.171 0.704 1.655-2.603 1.354-7.869 1.35-10.948l0.493-2.646c1.532-20.588 1.717-40.985-1.034-61.489-1.653-12.322-4.506-24.375-7.142-36.503z" fill="url(#b)"/> <path transform="scale(4)" d="m628.72 648.5 4.915 4.572c-0.185 0.574-0.692 1.619-0.704 2.181-0.044 2.096 1.992 5.799 2.663 8.001 1.746 5.73 2.973 11.601 4.055 17.489 2.93 15.949 3.824 32.42 3.76 48.608-0.028 7.199 0.109 14.594-0.953 21.652-0.206 1.369-0.029 2.492-0.704 3.745-0.752-1.131-0.495-2.164-0.495-3.495l0.745-0.75-0.13-0.805c-0.112-0.802-0.124-1.292 5e-3 -2.07-1.464-1.162-2.016-1.086-3.902-1.084l-1.079-0.052c1.532-20.588 1.717-40.985-1.034-61.489-1.653-12.322-4.506-24.375-7.142-36.503z" fill="#EDB225"/> <path transform="scale(4)" d="m350.06 888.62c7.539 3.385 16.643 4.364 24.774 5.506l4.906 20.549c0.889 3.847 2.213 8.112 2.354 12.029 28.786-3.873 60.568 0.635 85.686 15.752l0.159 0.124 8.75 6.066c1.742 1.491 3.442 3.062 5.377 4.301-7.966 0.051-24.032-1.666-29.914 3.927-0.951 0.904-1.265 1.638-1.631 2.873 0.676 6.998 6.869 12.916 10.356 18.678l3.389 4.094c-9.308-1.901-18.64-4.093-28.193-4.02-3.418 0.026-7.242 0.323-10.231 2.156-1.407 0.864-2.158 1.881-2.469 3.504-0.842 4.392 0.804 9.646 1.859 13.876l-0.521 0.483-7.233-7.2c-10.637-9.982-23.901-17.53-37.312-23.112-20.582-8.567-40.279-12.714-62.597-12.084 9.133-9.43 20.494-16.811 32.477-22.055 4.349-1.903 8.924-3.812 13.586-4.764l0.603-0.116-14.175-40.567z" fill="#C37030"/> <path transform="scale(4)" d="m382.09 926.71c28.786-3.873 60.568 0.635 85.686 15.752l0.159 0.124 8.75 6.066c1.742 1.491 3.442 3.062 5.377 4.301-7.966 0.051-24.032-1.666-29.914 3.927-0.951 0.904-1.265 1.638-1.631 2.873 0.676 6.998 6.869 12.916 10.356 18.678-3.47 0.186-8.054-4.542-10.831-6.496-2.855-2.008-5.768-3.934-8.8-5.665-6.74-3.847-13.961-7.026-21.038-10.193-4.837-2.166-9.802-4.641-14.894-6.127l-0.477-0.135 16.201-0.747c2.984-0.043 5.985 0.271 8.97 0.357 1.183 0.034 2.839 0.319 3.94-0.109-6.358-2.52-13.028-4.04-19.683-5.546-11.453-2.592-23.505-4.599-35.261-4.989l0.245-0.528 16.059-1.416c-4.036-1.653-9.353-3.81-12.508-6.868-1.062-1.03-0.705-1.854-0.706-3.259z" fill="#DF9823"/> <path transform="scale(4)" d="m167.1 577.63c12.309-2.272 24.565 1.825 36.148 5.77 26.196 8.923 52.125 22.224 74.9 37.93 11.993 8.271 23.732 17.64 33.97 27.997 21.214-11.401 44.783-16.649 68.386-20.333 25.131-3.922 50.677-5.756 76.104-5.587l17.215 0.564c4.941 0.379 9.968 1.097 14.918 1.097 3.802-2.71 7.08-9.969 9.179-14.085 18.338 12.787 37.535 19.931 60.13 20.068 1.217-10.75 0.151-22.37-0.383-33.185l45.073-4.094 10.599 19.491 8.021 17.069 4.051 10.373c0.916 2.531 1.739 5.599 3.311 7.796 2.636 12.128 5.489 24.181 7.142 36.503 2.751 20.504 2.566 40.901 1.034 61.489l-0.493 2.646c4e-3 3.079 0.305 8.345-1.35 10.948-1.321 0.494-2.93-0.173-4.171-0.704l-1.509-0.756-0.64-0.334c-1.034-0.766-1.866-3.154-2.422-4.362-1.141 4.521-1.955 9.645-3.941 13.856-3.432 13.305-9.059 24.727-15.62 36.752l-4.231 7.166c-11.288 15.363-23.634 28.452-39.327 39.406-2.351 1.641-5.196 4.016-7.849 5.125l-0.289 0.019c-3.329 2.764-7.514 4.82-11.318 6.862-10.937 5.872-22.335 10.041-33.784 14.693l4.522 10.292c-2.272 1.357-5.125 1.783-7.674 2.45-4.85 1.269-9.78 2.667-14.742 3.393l-0.382 0.062 11.327 23.987c-11.571 5.937-23.52 12.268-32.567 21.845l-2.499 2.748-0.159-0.124c-25.118-15.117-56.9-19.625-85.686-15.752-0.141-3.917-1.465-8.182-2.354-12.029l-4.906-20.549c-8.131-1.142-17.235-2.121-24.774-5.506l-3.166-7.472c-4.365-2.415-9.915-3.463-14.64-5.158-8.85-3.174-17.774-7.105-26.092-11.48-53.008-27.883-98.415-72.63-131.82-121.93-20.355-30.042-36.913-63.232-47.519-97.97-3.311-10.843-7.412-24.832-5.021-36.146 1.025-4.848 2.792-9.522 7.21-12.219 2.974-1.815 7.178-1.946 10.489-1.17 10.224 2.394 20.779 11.092 29.221 17.182 3.73 2.691 7.938 5.27 11.171 8.526 7e-3 -1.769-2.311-4.41-3.279-5.866-5.282-7.95-15.649-21.369-14.005-31.452 0.468-2.876 2.217-4.262 4.488-5.844zm205.98 308.87 1.751 7.629 4.906 20.549c0.889 3.847 2.213 8.112 2.354 12.029 28.786-3.873 60.568 0.635 85.686 15.752l0.159 0.124 2.499-2.748c9.047-9.577 20.996-15.908 32.567-21.845l-11.327-23.987-4.976-9.908c-28.225 6.546-56.338 8.806-85.215 6.159-9.428-0.865-19.007-3.358-28.404-3.754z" fill="#EDB225"/> <path transform="scale(4)" d="m296.07 707.17-2.316 0.635c-12.532-2.969-24.36-7.067-36.327-11.761-5.241-2.056-10.289-3.624-14.914-6.934 5.844-0.259 11.223 0.491 16.923 1.721 10.382 8.059 24.023 12.946 36.634 16.339z" fill="#F6D351"/> <path transform="scale(4)" d="m346.89 881.15 16.15 3.626c3.155 0.714 6.818 1.76 10.039 1.723l1.751 7.629c-8.131-1.142-17.235-2.121-24.774-5.506l-3.166-7.472z" fill="#95491A"/> <path transform="scale(4)" d="m486.7 884.1 23.252-6.289 4.522 10.292c-2.272 1.357-5.125 1.783-7.674 2.45-4.85 1.269-9.78 2.667-14.742 3.393l-0.382 0.062-4.976-9.908z" fill="#95491A"/> <path transform="scale(4)" d="m342.14 825.7c-17.142-2.611-33.014-7.043-47.515-16.919-4.58-3.12-8.783-7.08-13.374-10.054-4.624-2.997-9.244-8.02-12.411-12.568-0.501-0.719-0.714-1.312-1.562-1.691l-1.374-0.543c-2.882-1.629-5.792-5.641-8.239-7.997-1.338-1.288-3.092-2.41-3.664-4.183-1-0.847-2.263-1.674-2.772-2.902-0.49-1.181-1.558-1.339-2.056-2.538-0.464-1.119-2.197-3-3.17-3.813l-2e-3 -0.747-1.009-1.002 0.259-0.918c4.613 6.427 9.522 12.365 15.127 17.953 2.535 2.527 4.952 5.113 7.968 7.076l-6.618-10.037c0.744-0.169 1.302-0.514 2.014-0.072 1.343 0.834 2.738 2.663 3.898 3.805l10.159 9.748c6.999 6.357 15.822 11.684 23.998 16.447 6.806 3.965 13.877 7.28 21.006 10.606l12.679 6.144c2.357 1.212 4.802 2.267 6.658 4.205z" fill="#C37030"/> <path transform="scale(4)" d="m179.89 620.79c7e-3 -1.769-2.311-4.41-3.279-5.866-5.282-7.95-15.649-21.369-14.005-31.452 0.468-2.876 2.217-4.262 4.488-5.844 0.554 2.643 1.14 4.983 2.251 7.465l0.382 0.867c2.618 5.84 6.238 11.412 9.679 16.796 10.2 15.963 22.487 30.1 33.814 45.229l-32.607-25.839c-0.507-0.375-0.302-0.206-0.789-0.754l0.066-0.602z" fill="#DF9823"/> <path transform="scale(4)" d="m259.43 690.83c-1.673-2.199-3.663-4.53-4.577-7.166-0.483-1.392-0.339-2.501-0.119-3.932 1.731-2.329 3.34-3.357 6.264-3.708 1.441-0.173 2.904-0.307 4.25 0.312 0.707 1.158 1.186 2.186 1.657 3.459 3.237 8.728 11.028 13.513 19.093 17.173 17.086 7.753 34.774 11.389 53.155 14.452 4.73 0.788 11.04 0.242 15.343 1.878-13.552 0.396-27.584-0.616-40.987-2.61l-12.427-2.433c-1.106-0.263-4.016-1.288-5.018-1.086-12.611-3.393-26.252-8.28-36.634-16.339z" fill="#DF9823"/> <path transform="scale(4)" d="m261.73 774.82c-4.531-5.137-8.746-12.628-11.355-18.929-1.613-3.897-3.833-10.578-1.904-14.643 1.275-2.687 3.948-3.514 6.5-4.551-1.434-2.09-4.427-4.023-6.327-5.84-4.104-3.923-7.902-8.808-10.747-13.714-3.716-6.407-5.558-14.47-3.41-21.707 0.685-2.308 1.605-4.598 3.766-5.824 1.505-0.027 2.201-0.231 3.5 0.575 0.343 7.429 4.161 13.588 8.435 19.428 15.413 21.055 42.132 34.923 67.065 41.258 6.871 1.745 14.009 2.834 21.008 3.949l16.2 0.892-16.549 0.397c-8.952 0.993-19.978-1.524-28.659-3.603l-12.867-3.467c-6.582-1.983-13.145-4.301-19.878-5.719-1.821-0.384-3.459-0.854-5.229-0.063l-0.526 0.251c-1.833 0.819-3.606 1.751-4.887 3.367-1.192 1.503-1.131 4.029-0.834 5.871 1.573 9.752 12.17 20.696 19.707 26.42 27.691 21.028 63.604 26.153 97.383 21.573 17.958-2.435 35.481-7.865 52.174-14.801 14.154-5.88 27.794-12.663 39.32-22.957 10.306-9.204 18.308-19.805 26.634-30.691l1.137 0.732c0.75-0.297 1.197-1.573 1.572-2.276 2.007-3.766 2.888-8.722 6.294-11.505l0.75 0.673c-1.174 6.94-3.565 13.142-5.79 19.757-3.551 10.558-9.157 20.684-15.343 29.925-4.014 5.994-8.106 12.013-12.823 17.482-10.452 12.12-23.252 22.722-36.275 31.969-10.597 7.525-21.608 13.961-33.5 19.23l-12.723 5.534c-2.93 1.208-6 2.196-8.663 3.937-2.774-2.034-6.277-3.528-9.324-5.124l-17.12-9.067c-4.374-2.25-9.559-4.589-13.492-7.513-1.365 0.136-1.599 0.412-2.808-0.343-1.856-1.938-4.301-2.993-6.658-4.205l-12.679-6.144c-7.129-3.326-14.2-6.641-21.006-10.606-8.176-4.763-16.999-10.09-23.998-16.447l-10.159-9.748c-1.16-1.142-2.555-2.971-3.898-3.805-0.712-0.442-1.27-0.097-2.014 0.072z" fill="#DF9823"/> <path transform="scale(4)" d="m501.38 733.03c0.75-0.297 1.197-1.573 1.572-2.276 2.007-3.766 2.888-8.722 6.294-11.505l0.75 0.673c-1.174 6.94-3.565 13.142-5.79 19.757-3.551 10.558-9.157 20.684-15.343 29.925-4.014 5.994-8.106 12.013-12.823 17.482-10.452 12.12-23.252 22.722-36.275 31.969-10.597 7.525-21.608 13.961-33.5 19.23l-12.723 5.534c-2.93 1.208-6 2.196-8.663 3.937-2.774-2.034-6.277-3.528-9.324-5.124l-17.12-9.067c-4.374-2.25-9.559-4.589-13.492-7.513 26.109 2.138 50.179-1.394 74.361-11.571 29.748-12.519 56.715-34.457 73.23-62.477 3.574-6.064 6.21-12.473 8.846-18.974z" fill="#EDB225"/> <path transform="scale(4)" d="m557.66 597.86 45.073-4.094 10.599 19.491 8.021 17.069 4.051 10.373c0.916 2.531 1.739 5.599 3.311 7.796 2.636 12.128 5.489 24.181 7.142 36.503 2.751 20.504 2.566 40.901 1.034 61.489l-0.493 2.646c4e-3 3.079 0.305 8.345-1.35 10.948-1.321 0.494-2.93-0.173-4.171-0.704l-1.509-0.756-0.64-0.334c-1.034-0.766-1.866-3.154-2.422-4.362-1.141 4.521-1.955 9.645-3.941 13.856-3.432 13.305-9.059 24.727-15.62 36.752l-4.231 7.166c-11.288 15.363-23.634 28.452-39.327 39.406-2.351 1.641-5.196 4.016-7.849 5.125l-0.289 0.019-0.225-0.624 1.176-1.124c2.198-1.313-0.596 0.836 1.325-0.701l2.172-1.547 1.003-0.752c1.396-0.671 0.139 0.254 1.372-0.732l0.625-0.516 7.75-5.755c0.707-0.501 1.208-0.805 1.821-1.444l0.804-0.803c1.107-0.762 2.023-1.431 3-2.378l1.125-1.12c3.772-3.077 7.247-6.753 10.586-10.319 0.857-0.915 2.131-1.701 2.69-2.821 0.413-0.825 0.02-0.292 0.882-1.237l0.592-0.623c-0.627 9e-3 -1.326-0.014-1.92 0.242-1.525 0.658-3.111 2.039-4.694 2.821l-26.466 13.68c-7.285 3.895-14.763 6.884-22.25 10.296l-5.778 2.112c-20.015 6.876-41.099 12.045-62.3 13.02-28.35 1.303-58.025-5.764-83.459-18.174 2.663-1.741 5.733-2.729 8.663-3.937l12.723-5.534c11.892-5.269 22.903-11.705 33.5-19.23 13.023-9.247 25.823-19.849 36.275-31.969 4.717-5.469 8.809-11.488 12.823-17.482 6.186-9.241 11.792-19.367 15.343-29.925 2.225-6.615 4.616-12.817 5.79-19.757 2.431-14.825 4.439-30.503-1.859-44.686-2.893-1.348-5.469-3.341-8.237-4.928-4.112-2.357-8.25-4.124-12.789-5.466-12.962-3.833-26.233-2.219-39.334-0.149-13.232 2.09-26.322 5.138-39.16 8.95-11.521 3.421-23.008 7.651-34.871 9.76-28.596 5.083-59.575 4.413-86.5-7.286-4.438-1.928-8.865-3.737-12.859-6.5 5.397 0.665 10.862 2.132 16.216 3.157 11.823 2.263 23.576 4.281 35.643 4.643 32.43 0.973 63.973-8.809 95.309-15.837 12.534-2.811 25.214-4.266 37.958-5.683 10.04-9.792 21.092-19.316 29.22-30.829 3.802-2.71 7.08-9.969 9.179-14.085 18.338 12.787 37.535 19.931 60.13 20.068 1.217-10.75 0.151-22.37-0.383-33.185z" fill="#F6D351"/> <path transform="scale(4)" d="m557.66 597.86 45.073-4.094 10.599 19.491 8.021 17.069 4.051 10.373c0.916 2.531 1.739 5.599 3.311 7.796 2.636 12.128 5.489 24.181 7.142 36.503 2.751 20.504 2.566 40.901 1.034 61.489l-0.493 2.646c4e-3 3.079 0.305 8.345-1.35 10.948-1.321 0.494-2.93-0.173-4.171-0.704l-1.509-0.756-0.64-0.334c-1.034-0.766-1.866-3.154-2.422-4.362-1.141 4.521-1.955 9.645-3.941 13.856-3.432 13.305-9.059 24.727-15.62 36.752-3.475-6.639-3.955-14.505-4.938-21.832-2.701 10.308-7.461 20.774-13.413 29.574l-11.81-31.043c-5.111 10.377-9.751 22.032-17.643 30.713-1.041 1.146-2.116 2.228-3.729 2.335-2.083-3.239-2.221-8.032-2.648-11.82-1.267-11.232-1.516-21.909-0.95-33.192-4.573 6.488-9.251 13.034-14.877 18.646-2-13.741 0.481-26.387 2.736-39.854-5.3 5.271-11.131 10.714-17.362 14.866 1.617-21.279 14.001-41.28 21.818-60.753 9.147-22.787 13.42-46.625 14.114-71.128 1.217-10.75 0.151-22.37-0.383-33.185z" fill="#F8E38E"/> <path transform="scale(4)" d="m622.37 767.78c-0.661-3.734-5e-3 -7.505 0.046-11.271l0.177-24.101 13.464 16.368 0.346 0.356c4e-3 3.079 0.305 8.345-1.35 10.948-1.321 0.494-2.93-0.173-4.171-0.704l-1.509-0.756-0.64-0.334c-1.034-0.766-1.866-3.154-2.422-4.362-1.141 4.521-1.955 9.645-3.941 13.856z" fill="#F6D351"/> <path transform="scale(4)" d="m299.09 510.2c-1.765-1.129-4.793-0.903-6.887-1.111-11.729-1.161-20.436-4.449-29.282-12.331 3.925 1.095 7.946 2.251 12.018 2.628 7.641 0.707 14.989-0.399 22.508-1.58-2.684-1.106-6.301-1.286-9.194-1.828-4.545-0.852-9.134-2.152-13.423-3.892-19.759-8.015-36.02-24.952-46.553-43.194-4.814-8.336-8.368-16.988-12.092-25.828l4.776 4.679c12.76 12.197 30.415 18.872 48.05 18.464l-2.393-0.652c-22.366-6.254-35.616-23.276-46.535-42.695 5.448 2.648 9.64 5.35 15.659 6.837 15.882 3.925 31.191-2.572 44.521-10.678-0.741-3.324-2.227-6.688-3.146-10.023-2.62-9.517-4.75-19.195-6-28.993-1.941-15.215-3.124-30.429-2.496-45.783 1.831-44.768 17.187-91.781 44.825-127.38 42.514-54.753 104.12-88.973 171.5-102.72 15.05-3.0712 30.58-4.4278 45.811-6.3699 16.492-2.1029 32.858-5.8172 48.742-10.694 31.687-9.7279 60.833-24.41 81.51-51.154 0.862 8.3942 0.484 15.978-0.86 24.295-1.669 6.8906-4.017 13.161-7.194 19.504-1.309 2.6128-2.739 5.5968-4.845 7.6524l0.735-0.0395c2.563-0.1669 5.246-0.9267 7.768-1.4501 6.512-1.3515 12.767-3.049 19.057-5.2116 21.236-7.3 44.793-16.772 59.725-34.271l3.63-4.7797c0.345 26.937-9.364 53.523-28.285 72.982-3.494 3.5937-7.13 6.9508-11.021 10.114-2.338 1.901-5.418 3.746-7.38 5.99l0.411 0.219c3.614 1.972 7.007 4.49 10.401 6.817 10.176 6.975 19.46 14.58 28.252 23.238 35.209 34.672 59.997 77.819 73.789 125.2 4.888 16.791 8.172 34.714 10.009 52.085 0.593 5.614 0.751 10.99 0.139 16.618-0.017 0.161-0.144 0.348-0.054 0.482 0.464 0.687 3.161 2.026 3.963 2.457 11.799 6.334 30.071 7.647 42.724 3.637 4.511-1.43 8.682-3.504 12.666-6.047-5.159 14.611-12.434 24.036-25.115 32.884 3.457-0.066 7.038 0.04 10.394-0.906 4.88-1.376 10.193-5.705 13.698-9.251l5.57-6.777c-0.481 7.378-1.337 14.64-4.26 21.502-1.891 4.439-4.615 8.519-7.233 12.553 10.673-0.733 23.946-1.488 32.748 5.856 3.28 2.738 4.905 5.59 5.91 9.757 0.125 5.602-1.173 8.788-5.12 12.902-13.64 14.211-32.348 24.502-51.49 28.939-5.333 1.237-12.412 1.364-17.39 3.313-8.668 1.492-17.077 4.314-25.352 7.235-3.032 1.07-6.292 1.882-9.25 3.105-5.099 2.108-9.951 5.603-14.839 8.219-5.742 3.074-11.791 5.601-17.705 8.327l12.805 19.281c0.755 1.191 1.404 2.248 1.846 3.603 3.475 3.828 5.488 10.344 8.082 14.898 3.241 6.621 6.9 13.148 4.264 20.704-2.964 8.499-11.32 14.185-19.203 17.707-12.204 5.452-28.265 6.549-41.49 5.357l-0.099-0.051-40.495 17.568c-28.648 10.969-57.913 17.088-88.18 21.654l-45.073 4.094c0.534 10.815 1.6 22.435 0.383 33.185-22.595-0.137-41.792-7.281-60.13-20.068 2.491-5.332 4.329-11.016 5.935-16.669l-40.65-6.457c-58.784-12.233-119.8-35.98-164.11-77.657z" fill="#F6D351"/> <path transform="scale(4)" d="m557.26 350.97c2.586 6.503 3.925 13.412 4.502 20.373 0.231 2.784 0.486 6.087-0.235 8.804-1.321-9.675-2.943-17.705-7.325-26.522 1.013-0.011 1.829-0.112 2.799-0.367-0.092-0.861-0.103-0.443 0.094-1.478l0.165-0.81z" fill="#000001"/> <path transform="scale(4)" d="m656.54 366.12 3.358-1.954c14.399-8.23 29.855-8.743 45.561-4.452-2.466 0.972-6.281-0.41-8.964-0.609-3.295-0.244-6.808-0.272-10.107-2e-3 -6.581 0.539-13.12 1.643-19.44 3.563-3.106 0.944-7.266 3.17-10.408 3.454z" fill="#C37030"/> <path transform="scale(4)" d="m648.11 67.35-0.075-0.0292-1.536 0.9906c-5.183 3.4633-10.888 6.5102-16.462 9.2945-3.437 1.7165-6.515 3.6291-10.384 4.0418l-0.025-0.1944c11.509-7.5069 22.426-17.828 30.499-28.97 3.082-4.2542 5.296-9.425 9.182-12.987l0.84 0.6973c-1.669 6.8906-4.017 13.161-7.194 19.504-1.309 2.6128-2.739 5.5968-4.845 7.6524z" fill="#EDB225"/> <path transform="scale(4)" d="m716.25 324c2.282-12.416 8.17-24.156 18.718-31.527 6.343-4.432 15.194-6.915 22.822-5.434 11.787 2.288 21.308 9.548 27.815 19.491 4.95 7.563 9.967 20.315 9.025 29.492-1.895-6.949-4.281-13.772-8.379-19.761-6.437-9.406-16.645-18.519-28.278-20.483-10.016-1.692-19.43 1.874-27.424 7.64-4.829 3.383-8.701 8.521-11.171 13.862-1.031 2.23-1.745 4.671-3.128 6.72z" fill="#0A1627"/> <path transform="scale(4)" d="m733.81 214.66c5.153-0.239 9.767 0.135 14.794 1.405 12.574 3.177 26.249 12.257 32.917 23.512 0.351 2.826-1.009 6.839-1.907 9.535l-15.221-7.134c-17.697-7.369-36.15-9.428-55.125-7.485 1.384-3.078 2.868-6.267 4.798-9.045 4.716-6.791 11.844-9.559 19.744-10.788z" fill="#6D4915"/> <path transform="scale(4)" d="m447.5 389.12c-0.868-2.067-1.58-3.961-1.975-6.182-2.3-12.923-0.12-25.986 5.768-37.718 7.104-14.159 20.036-26.155 35.219-31.082 13.539-4.394 29.285-3.808 41.99 2.84 12.936 6.77 24.439 19.899 28.759 33.984l-0.165 0.81c-0.197 1.035-0.186 0.617-0.094 1.478-0.97 0.255-1.786 0.356-2.799 0.367-7.159-12.631-16.576-22.872-30.206-28.433-14.35-5.854-29.181-3.943-43.124 1.98-12.515 4.833-22.938 17.448-28.262 29.424-4.74 10.661-5.828 20.965-5.111 32.532z" fill="#0A1627"/> <path transform="scale(4)" d="m730.55 303.41c7.994-5.766 17.408-9.332 27.424-7.64 11.633 1.964 21.841 11.077 28.278 20.483 4.098 5.989 6.484 12.812 8.379 19.761-0.123 14.626-4.02 29.76-14.772 40.373-3.342 3.299-9.827 8.676-14.658 8.575l-1.209-0.071c8.119-5.367 12.785-15.493 14.933-24.719l0.211-0.925c1.303-5.57 1.492-11.579 0.814-17.25-1.389-11.609-6.606-25.245-16.135-32.602-6.413-4.952-14.782-7.595-22.859-7.329-3.5 0.115-6.946 0.862-10.406 1.344z" fill="#FEFEFE"/> <path transform="scale(4)" d="m482.14 237.18c2.874-0.548 6.916-0.371 9.825 0.097l0.78 0.133 0.901 0.126c10.124 1.478 17.212 7.364 23.154 15.275-25.323 2.358-49.027 8.629-69.018 25.07-6.572 5.224-12.257 11.186-17.725 17.533l-0.863-4.166c-1.579-10.495 3.426-20.671 9.646-28.804 10.488-13.714 26.207-22.976 43.3-25.264z" fill="#6D4915"/> <path transform="scale(4)" d="m480.87 327.17c13.943-5.923 28.774-7.834 43.124-1.98 13.63 5.561 23.047 15.802 30.206 28.433 4.382 8.817 6.004 16.847 7.325 26.522-0.187 15.927-6.38 31.304-17.838 42.438-3.747 3.64-8.403 7.024-13.186 9.162-2.414 1.071-5.374 2.695-8.04 2.669l4.276-3.384c10.241-9.08 15.026-22.149 15.793-35.607 1.065-18.678-3.947-36.204-16.709-50.25-8.234-9.062-20.346-16.286-32.648-17.722-3.872-0.451-7.511 0.014-11.325-0.214l-0.978-0.067z" fill="#FEFEFE"/> <path transform="scale(4)" d="m730.55 303.41c3.46-0.482 6.906-1.229 10.406-1.344 8.077-0.266 16.446 2.377 22.859 7.329 9.529 7.357 14.746 20.993 16.135 32.602 0.678 5.671 0.489 11.68-0.814 17.25l-0.211 0.925c-2.148 9.226-6.814 19.352-14.933 24.719l-3.448 1.818-0.271-0.098c-3.951-1.358-7.741-3.604-11.507-5.436-8.713-4.239-18.051-8.613-25.879-14.361-1.567-3.299-3.28-6.52-4.477-9.981-3.79-10.95-3.848-21.512-2.159-32.841 1.383-2.049 2.097-4.49 3.128-6.72 2.47-5.341 6.342-10.479 11.171-13.862z" fill="#165179"/> <path transform="scale(4)" d="m756.81 312.75c0.805-0.113 0.799-0.16 1.461-0.131 1.959 0.085 3.762 0.713 5.075 2.224 1.386 1.595 1.279 2.946 1.152 4.907-1.17 1.703-1.432 1.754-3.255 2.5-1.985 0.111-3.431-0.184-4.973-1.5-1.887-1.61-2.596-3.041-2.728-5.5 0.967-1.489 1.622-1.873 3.268-2.5z" fill="#FEFEFE"/> <path transform="scale(4)" d="m299.09 510.2c3.248-0.669 6.417-0.577 9.668-1.035 3.862-0.544 7.428-1.778 11.094-3.044 18.88 14.142 39.93 25.808 61.216 35.858 23.358 11.029 47.135 20.435 72.135 27.126 17.485 4.679 35.172 7.416 53.114 9.604 38.681 4.717 77.252 5.099 115.9-0.413 21.436-3.057 42.468-7.525 63.379-13.11 12.594-3.364 24.953-6.828 36.883-12.163 2.524 0.238 6.801 0.163 8.932 1.527l-40.495 17.568c-28.648 10.969-57.913 17.088-88.18 21.654l-45.073 4.094c0.534 10.815 1.6 22.435 0.383 33.185-22.595-0.137-41.792-7.281-60.13-20.068 2.491-5.332 4.329-11.016 5.935-16.669l-40.65-6.457c-58.784-12.233-119.8-35.98-164.11-77.657z" fill="#EDB225"/> <path transform="scale(4)" d="m447.5 389.12c-0.717-11.567 0.371-21.871 5.111-32.532 5.324-11.976 15.747-24.591 28.262-29.424l0.978 0.067c3.814 0.228 7.453-0.237 11.325 0.214 12.302 1.436 24.414 8.66 32.648 17.722 12.762 14.046 17.774 31.572 16.709 50.25-0.767 13.458-5.552 26.527-15.793 35.607l-4.276 3.384c-3.137 1.906-6.737 3.075-10.345 3.703-15.014 2.613-28.108-2.63-40.128-11.23l-5.749-4.86c-8.456-8.399-14.715-18.859-17.663-30.406l-1.079-2.495z" fill="#1B729F"/> <path transform="scale(4)" d="m501.43 344.12c2.746-0.3 5.644-0.356 8.323 0.399 2.355 0.663 4.645 2.031 5.75 4.297 0.697 1.431 0.911 3.286 0.364 4.799-0.692 1.914-1.858 2.502-3.614 3.261-5.006 0.486-8.649-1.767-12.362-4.903-1.694-1.431-2.181-2.269-2.36-4.473 1.041-1.788 2.112-2.392 3.899-3.38z" fill="#FEFEFE"/> <path transform="scale(4)" d="m448.58 391.62 0.063-0.424c0.327-2.373 0.114-4.725 0.39-7.088 1.11-9.484 4.26-21.113 12.318-27.066 3.317-2.451 7.608-4.022 11.652-4.586l0.894-0.133c9.923-1.392 20.557 3.138 28.333 9.136 3.291 2.538 6.418 5.576 8.649 9.091l0.491 0.749c5.963 9.203 7.352 20.794 4.934 31.341-1.952 8.511-7.66 16.983-15.084 21.622-6.185 3.865-13.246 4.445-20.333 3.299-3.11-0.502-5.705-1.2-8.895-0.675l-5.749-4.86c-8.456-8.399-14.715-18.859-17.663-30.406z" fill="#165179"/> <path transform="scale(4)" d="m656.67 532.58c-2.201 1.02-4.769 0.994-7.159 1.122l-15.155 0.37c-40.61 0.65-81.437-0.734-120.11-14.355-22.448-7.907-49.13-22.372-59.737-44.725-5.249-11.061-7.587-24.44-3.14-36.185 2.564-6.771 8.129-13.854 14.873-16.786l5.749 4.86c12.02 8.6 25.114 13.843 40.128 11.23 3.608-0.628 7.208-1.797 10.345-3.703 2.666 0.026 5.626-1.598 8.04-2.669l0.718 0.45c2.358 1.394 5.531 0.31 6.771 3.306l-0.201 0.905c-0.202 0.969-0.15 1.647 0.064 2.621l3.829 5.58c8.918 12.312 20.336 23.771 31.689 33.895 25.227 22.497 52.576 39.935 83.298 54.084z" fill="#F8E38E"/> <defs> <linearGradient id="a" x1="644.74" x2="807.45" y1="517.85" y2="317.18" gradientUnits="userSpaceOnUse"> <stop stop-color="#DB7C36" offset="0"/> <stop stop-color="#FEC364" offset="1"/> </linearGradient> </defs> <path transform="scale(4)" d="m656.54 366.12c3.142-0.284 7.302-2.51 10.408-3.454 6.32-1.92 12.859-3.024 19.44-3.563 3.299-0.27 6.812-0.242 10.107 2e-3 2.683 0.199 6.498 1.581 8.964 0.609 6.246 0.969 11.415 5.86 17.421 7.102 7.828 5.748 17.166 10.122 25.879 14.361 3.766 1.832 7.556 4.078 11.507 5.436l0.271 0.098 0.784 0.367c15.441 7.912 31.41 12.488 48.924 11.278 8.239-0.569 16.617-2.771 24.57-4.921 11.014-2.978 21.552-6.276 32.874-8.042 10.673-0.733 23.946-1.488 32.748 5.856 3.28 2.738 4.905 5.59 5.91 9.757 0.125 5.602-1.173 8.788-5.12 12.902-13.64 14.211-32.348 24.502-51.49 28.939-5.333 1.237-12.412 1.364-17.39 3.313-8.668 1.492-17.077 4.314-25.352 7.235-3.032 1.07-6.292 1.882-9.25 3.105-5.099 2.108-9.951 5.603-14.839 8.219-5.742 3.074-11.791 5.601-17.705 8.327l12.805 19.281c0.755 1.191 1.404 2.248 1.846 3.603 3.475 3.828 5.488 10.344 8.082 14.898 3.241 6.621 6.9 13.148 4.264 20.704-2.964 8.499-11.32 14.185-19.203 17.707-12.204 5.452-28.265 6.549-41.49 5.357l-0.099-0.051c-2.131-1.364-6.408-1.289-8.932-1.527-15.298-3.158-29.833-6.671-44.584-11.933l-21.225-8.501c-30.722-14.149-58.071-31.587-83.298-54.084-11.353-10.124-22.771-21.583-31.689-33.895l-3.829-5.58 0.699-0.815 5.805-0.264c5.618-0.846 11.301-1.423 16.819-2.825 23.865-6.066 43.676-20.904 60.583-38.21 7.151-7.318 13.878-15.358 21.847-21.8 3.682-2.976 8.474-7.365 12.938-8.991z" fill="url(#a)"/> <path transform="scale(4)" d="m677.55 387.75c0.569-0.103 1.143-0.187 1.723-0.146 3.818 0.266 11.193 3.876 13.579 6.71 1.319 1.565 1.72 2.426 1.624 4.436l-1.224 0.946c-2.631-0.473-4.842-3.688-7.268-4.946-2.552-1.324-7.198-0.399-9.155-2.576-1.078-1.199-0.791-1.951-0.647-3.424l1.368-1z" fill="#0A1627"/> <path transform="scale(4)" d="m544.36 437.95 0.243 0.163c9.964 6.513 22.114 11.097 32.996 15.938 47.814 21.271 104.59 31.259 156.15 19.002 22.65-5.384 44.373-15.338 63.761-28.096l22.489-16.379c15.918-12.666 32.59-29.15 53-33.682 6.643-1.475 16.563-1.959 23.03 0.23 2.291 0.775 4.533 1.413 6.417 2.989l3.905 2.895c0.125 5.602-1.173 8.788-5.12 12.902-13.64 14.211-32.348 24.502-51.49 28.939-5.333 1.237-12.412 1.364-17.39 3.313-8.668 1.492-17.077 4.314-25.352 7.235-3.032 1.07-6.292 1.882-9.25 3.105-5.099 2.108-9.951 5.603-14.839 8.219-5.742 3.074-11.791 5.601-17.705 8.327-4.175 0.674-8.299 2.833-12.289 4.288l-5.583 1.897c-11.285 3.028-22.486 5.944-34.084 7.563-37.376 5.216-77.754 0.712-112.68-13.732l3e-3 -0.024c-2.305-1.12-4.712-1.636-7.038-2.738-13.543-6.413-27.327-13.448-39.732-21.862-3.319-2.251-6.702-4.321-9.794-6.887-0.933-1.149-1.547-1.217-2.632-2.052l-0.378-0.5-1.875 0.252c0.56 1.076 1.199 1.996 1.875 2.998l0.464 0.726c0.433 0.652 0.883 1.128 1.445 1.666l-1.226-0.036-3.829-5.58 0.699-0.815 5.805-0.264z" fill="#C37030"/> <path transform="scale(4)" d="m541.68 444.61 1.226 0.036c-0.562-0.538-1.012-1.014-1.445-1.666l-0.464-0.726c-0.676-1.002-1.315-1.922-1.875-2.998l1.875-0.252 0.378 0.5c1.085 0.835 1.699 0.903 2.632 2.052 3.092 2.566 6.475 4.636 9.794 6.887 12.405 8.414 26.189 15.449 39.732 21.862 2.326 1.102 4.733 1.618 7.038 2.738l-3e-3 0.024c34.925 14.444 75.303 18.948 112.68 13.732 11.598-1.619 22.799-4.535 34.084-7.563l5.583-1.897c3.99-1.455 8.114-3.614 12.289-4.288l12.805 19.281c0.755 1.191 1.404 2.248 1.846 3.603 3.475 3.828 5.488 10.344 8.082 14.898 3.241 6.621 6.9 13.148 4.264 20.704-2.964 8.499-11.32 14.185-19.203 17.707-12.204 5.452-28.265 6.549-41.49 5.357l-0.099-0.051c-2.131-1.364-6.408-1.289-8.932-1.527-15.298-3.158-29.833-6.671-44.584-11.933l-21.225-8.501c-30.722-14.149-58.071-31.587-83.298-54.084-11.353-10.124-22.771-21.583-31.689-33.895z" fill="#DB7C36"/> <path transform="scale(4)" d="m544.01 441.55c3.092 2.566 6.475 4.636 9.794 6.887 12.405 8.414 26.189 15.449 39.732 21.862 2.326 1.102 4.733 1.618 7.038 2.738l-3e-3 0.024-0.416 0.854c1.092 1.346 2.521 2.776 3.356 4.28l-1.761 0.409c-4.578-1.32-8.99-3.959-13.25-6.09-10.792-5.399-21.749-11.296-31.5-18.425-3.158-2.309-6.526-4.629-9.117-7.581-1.127-1.284-2.094-2.091-3.527-3.028l-0.423-0.265 0.077-1.665z" fill="#A1323F"/> <path transform="scale(4)" d="m779.86 495.93c-0.163 0.45 4.813 11.818 5.321 13.522 0.984 3.302 1.477 6.734 1.092 10.188-0.78 7.01-5.302 12.775-10.715 16.99-13.544 10.545-30.897 9.982-47.055 7.86-38.221-5.018-77.633-23.162-107.7-47.065-4.115-3.271-10.253-7.421-13.393-11.595-1.846-2.454-4.318-3.994-6.171-6.41l5.147 3.521c0.551 0.444 0.896 0.375 1.595 0.457l2.95 0.508c28.104 20.465 57.121 35.601 91.127 43.77 10.946 2.63 22.392 4.918 33.655 3.106 11.16-1.795 21.453-6.856 31.784-11.169 2.048-0.855 6.107-1.709 7.346-3.398l-0.285-0.89c-0.31-6.151-4.25-13.527-6.886-18.962 0.986-1.091 2.316-1.629 3.632-2.255 1.922-0.916 4.61-2.525 6.713-1.781 0.755 1.191 1.404 2.248 1.846 3.603z" fill="#EB9782"/> <path transform="scale(4)" d="m752.92 477.34c3.99-1.455 8.114-3.614 12.289-4.288l12.805 19.281c-2.103-0.744-4.791 0.865-6.713 1.781-1.316 0.626-2.646 1.164-3.632 2.255 2.636 5.435 6.576 12.811 6.886 18.962l0.285 0.89c-1.239 1.689-5.298 2.543-7.346 3.398-10.331 4.313-20.624 9.374-31.784 11.169-11.263 1.812-22.709-0.476-33.655-3.106-34.006-8.169-63.023-23.305-91.127-43.77-2.212-2.074-5.049-3.741-7.414-5.71-0.835-1.504-2.264-2.934-3.356-4.28l0.416-0.854c34.925 14.444 75.303 18.948 112.68 13.732 11.598-1.619 22.799-4.535 34.084-7.563l5.583-1.897z" fill="#A1323F"/> <path transform="scale(4)" d="m752.92 477.34c5.454 6.089 10.357 12.134 14.749 19.029 2.636 5.435 6.576 12.811 6.886 18.962l-0.613-0.265c-0.527-0.861-0.423-0.582-0.7-1.342-4.976-13.699-15.382-24.775-25.905-34.487l5.583-1.897z" fill="#8C2231"/> <path transform="scale(4)" d="m752.92 477.34c3.99-1.455 8.114-3.614 12.289-4.288l12.805 19.281c-2.103-0.744-4.791 0.865-6.713 1.781-1.316 0.626-2.646 1.164-3.632 2.255-4.392-6.895-9.295-12.94-14.749-19.029z" fill="#A1323F"/> </g> </svg>